<svg width="400" height="135" viewBox="0 0 400 135" fill="none" xmlns="http://www.w3.org/2000/svg">
<g clip-path="url(#clip0_153_597)">
<path d="M60.5983 121C93.9571 121 121 93.9132 121 60.5C121 27.0868 93.9571 0 60.5983 0C27.2395 0 0.196777 27.0868 0.196777 60.5C0.196777 93.9132 27.2395 121 60.5983 121Z" fill="white"/>
<path d="M60.5982 119.138C92.9306 119.138 119.141 92.8851 119.141 60.5C119.141 28.1149 92.9306 1.86154 60.5982 1.86154C28.2658 1.86154 2.05518 28.1149 2.05518 60.5C2.05518 92.8851 28.2658 119.138 60.5982 119.138Z" stroke="#00B7DC" stroke-width="2"/>
<path d="M29.9387 35.3692H0V84.1992H29.9387V35.3692Z" fill="white"/>
<path d="M61.5279 109.831C89.2413 109.831 111.708 87.3279 111.708 59.5692C111.708 31.8105 89.2413 9.30768 61.5279 9.30768C33.8144 9.30768 11.3481 31.8105 11.3481 59.5692C11.3481 87.3279 33.8144 109.831 61.5279 109.831Z" fill="white"/>
<path d="M60.9981 109.272C55.7645 109.278 50.5644 108.457 45.5854 106.843C45.6338 106.389 45.6951 105.923 45.7713 105.46C46.0631 104.075 46.8102 102.83 47.8956 101.923C49.085 100.84 50.6276 100.225 52.2352 100.195C52.421 100.195 52.6069 100.195 52.7927 100.221C54.2628 100.363 56.8443 100.514 59.6785 100.514C62.89 100.679 66.1052 100.29 69.1848 99.367C71.9001 98.1235 73.1174 94.9254 71.9149 92.1871C71.2012 90.6197 71.5414 88.7749 72.768 87.5668C73.6452 86.77 74.1935 85.6736 74.305 84.4915C74.305 83.3076 72.9538 82.3786 72.9408 82.3693C73.8478 82.293 74.6971 81.8928 75.3327 81.2412C75.5967 80.9248 75.7025 80.5041 75.6226 80.1001C75.3531 79.0968 74.6953 78.2442 73.7958 77.7267C73.2531 77.3711 72.8925 76.7959 72.8107 76.1518C72.6825 75.02 73.0412 73.8863 73.7958 73.0356C74.673 72.1718 75.8698 71.7102 77.0983 71.7623C78.797 71.9075 80.4083 70.9786 81.1387 69.4354C82.0327 67.464 77.5425 61.0584 74.2622 56.3804C73.8478 55.7884 73.4593 55.2356 73.1099 54.7292C71.0656 51.7657 71.0656 51.6968 71.0656 48.0277C71.0656 46.2071 71.0656 43.4539 70.8091 39.0067C69.6754 25.9014 60.6951 14.8048 48.1279 10.9831C72.1807 4.57565 97.2724 16.8804 106.974 39.8369C114.885 58.577 110.657 80.2509 96.2818 94.6257C86.9354 104.017 74.2362 109.287 60.9981 109.272Z" fill="#00B7DC"/>
<path d="M27.8773 35.3692H5.5752V39.0923H27.8773V35.3692Z" fill="#00B7DC"/>
<path d="M31.5946 42.8154C34.6738 42.8154 37.1701 40.3151 37.1701 37.2308C37.1701 34.1465 34.6738 31.6461 31.5946 31.6461C28.5153 31.6461 26.019 34.1465 26.019 37.2308C26.019 40.3151 28.5153 42.8154 31.5946 42.8154Z" fill="#00B7DC"/>
<path d="M31.5946 65.1539C34.6738 65.1539 37.1701 62.6535 37.1701 59.5692C37.1701 56.4849 34.6738 53.9846 31.5946 53.9846C28.5153 53.9846 26.019 56.4849 26.019 59.5692C26.019 62.6535 28.5153 65.1539 31.5946 65.1539Z" fill="#00B7DC"/>
<path d="M31.5946 89.3538C34.6738 89.3538 37.1701 86.8535 37.1701 83.7692C37.1701 80.6849 34.6738 78.1846 31.5946 78.1846C28.5153 78.1846 26.019 80.6849 26.019 83.7692C26.019 86.8535 28.5153 89.3538 31.5946 89.3538Z" fill="#00B7DC"/>
<path d="M27.8773 57.7077H5.5752V61.4307H27.8773V57.7077Z" fill="#00B7DC"/>
<path d="M27.8773 81.9077H5.5752V85.6308H27.8773V81.9077Z" fill="#00B7DC"/>
<path d="M5.5753 81.9077H3.7168V85.6308H5.5753V81.9077Z" fill="white"/>
</g>
<path d="M167.176 10.2461L161.516 15.25C159.529 12.4792 157.505 11.0938 155.445 11.0938C154.443 11.0938 153.622 11.3672 152.984 11.9141C152.346 12.4427 152.027 13.0443 152.027 13.7188C152.027 14.3932 152.255 15.0312 152.711 15.6328C153.331 16.4349 155.199 18.1576 158.316 20.8008C161.233 23.2435 163.001 24.7839 163.621 25.4219C165.171 26.9896 166.264 28.4935 166.902 29.9336C167.559 31.3555 167.887 32.9141 167.887 34.6094C167.887 37.9089 166.747 40.6341 164.469 42.7852C162.19 44.9362 159.219 46.0117 155.555 46.0117C152.693 46.0117 150.195 45.3099 148.062 43.9062C145.948 42.5026 144.134 40.2969 142.621 37.2891L149.047 33.4062C150.979 36.9609 153.203 38.7383 155.719 38.7383C157.031 38.7383 158.134 38.3555 159.027 37.5898C159.921 36.8242 160.367 35.9401 160.367 34.9375C160.367 34.026 160.03 33.1146 159.355 32.2031C158.681 31.2917 157.195 29.8971 154.898 28.0195C150.523 24.4466 147.698 21.694 146.422 19.7617C145.146 17.8112 144.508 15.8698 144.508 13.9375C144.508 11.1484 145.565 8.76042 147.68 6.77344C149.812 4.76823 152.438 3.76562 155.555 3.76562C157.56 3.76562 159.465 4.23047 161.27 5.16016C163.092 6.08984 165.061 7.78516 167.176 10.2461ZM188.395 14.4844C191.202 14.4844 193.836 15.1862 196.297 16.5898C198.776 17.9935 200.708 19.8984 202.094 22.3047C203.479 24.7109 204.172 27.3086 204.172 30.0977C204.172 32.9049 203.47 35.5299 202.066 37.9727C200.681 40.4154 198.785 42.3294 196.379 43.7148C193.973 45.082 191.32 45.7656 188.422 45.7656C184.156 45.7656 180.51 44.2526 177.484 41.2266C174.477 38.1823 172.973 34.4909 172.973 30.1523C172.973 25.5039 174.677 21.6302 178.086 18.5312C181.076 15.8333 184.512 14.4844 188.395 14.4844ZM188.504 21.5117C186.189 21.5117 184.257 22.3229 182.707 23.9453C181.176 25.5495 180.41 27.6094 180.41 30.125C180.41 32.7135 181.167 34.8099 182.68 36.4141C184.211 38.0182 186.143 38.8203 188.477 38.8203C190.81 38.8203 192.751 38.0091 194.301 36.3867C195.85 34.7643 196.625 32.6771 196.625 30.125C196.625 27.5729 195.859 25.5039 194.328 23.918C192.815 22.3138 190.874 21.5117 188.504 21.5117ZM206.742 15.25H209.395C209.413 11.349 209.477 9.04297 209.586 8.33203C209.786 6.69141 210.47 5.39714 211.637 4.44922C212.822 3.48307 214.49 3 216.641 3C218.19 3 219.94 3.35547 221.891 4.06641V9.75391C220.815 9.44401 219.931 9.28906 219.238 9.28906C218.363 9.28906 217.725 9.47135 217.324 9.83594C217.033 10.1094 216.887 10.6745 216.887 11.5312L216.859 15.25H221.59V21.5938H216.859V45H209.395V21.5938H206.742V15.25ZM226.895 4.28516H234.332V15.25H238.762V21.6758H234.332V45H226.895V21.6758H223.066V15.25H226.895V4.28516ZM239.473 15.25H246.773L252.762 32.1758L259.215 15.25H263.672L269.988 31.9844L275.977 15.25H283.332L272.477 45H267.746L261.402 28.0469L254.867 45H250.191L239.473 15.25ZM301.543 14.4844C304.35 14.4844 306.984 15.1862 309.445 16.5898C311.924 17.9935 313.857 19.8984 315.242 22.3047C316.628 24.7109 317.32 27.3086 317.32 30.0977C317.32 32.9049 316.618 35.5299 315.215 37.9727C313.829 40.4154 311.934 42.3294 309.527 43.7148C307.121 45.082 304.469 45.7656 301.57 45.7656C297.305 45.7656 293.659 44.2526 290.633 41.2266C287.625 38.1823 286.121 34.4909 286.121 30.1523C286.121 25.5039 287.826 21.6302 291.234 18.5312C294.224 15.8333 297.66 14.4844 301.543 14.4844ZM301.652 21.5117C299.337 21.5117 297.405 22.3229 295.855 23.9453C294.324 25.5495 293.559 27.6094 293.559 30.125C293.559 32.7135 294.315 34.8099 295.828 36.4141C297.359 38.0182 299.292 38.8203 301.625 38.8203C303.958 38.8203 305.9 38.0091 307.449 36.3867C308.999 34.7643 309.773 32.6771 309.773 30.125C309.773 27.5729 309.008 25.5039 307.477 23.918C305.964 22.3138 304.022 21.5117 301.652 21.5117ZM321.695 15.25H328.094V18.9961C328.786 17.5195 329.707 16.3984 330.855 15.6328C332.004 14.8672 333.262 14.4844 334.629 14.4844C335.595 14.4844 336.607 14.7396 337.664 15.25L335.34 21.6758C334.465 21.2383 333.745 21.0195 333.18 21.0195C332.031 21.0195 331.056 21.7305 330.254 23.1523C329.47 24.5742 329.078 27.3633 329.078 31.5195L329.105 32.9688V45H321.695V15.25ZM341.438 3.76562H348.902V27.5273L359.895 15.25H369.246L356.449 29.5234L370.805 45H361.535L348.902 31.3008V45H341.438V3.76562ZM392.078 19.4062L387.457 24.0273C385.579 22.168 383.875 21.2383 382.344 21.2383C381.505 21.2383 380.849 21.4206 380.375 21.7852C379.901 22.1315 379.664 22.569 379.664 23.0977C379.664 23.4987 379.81 23.8724 380.102 24.2188C380.411 24.5469 381.159 25.0026 382.344 25.5859L385.078 26.9531C387.958 28.375 389.936 29.8242 391.012 31.3008C392.087 32.7773 392.625 34.5091 392.625 36.4961C392.625 39.1393 391.65 41.3451 389.699 43.1133C387.767 44.8815 385.169 45.7656 381.906 45.7656C377.568 45.7656 374.104 44.0703 371.516 40.6797L376.109 35.6758C376.984 36.6966 378.005 37.526 379.172 38.1641C380.357 38.7839 381.405 39.0938 382.316 39.0938C383.301 39.0938 384.094 38.8568 384.695 38.3828C385.297 37.9089 385.598 37.362 385.598 36.7422C385.598 35.5938 384.513 34.4727 382.344 33.3789L379.828 32.1211C375.016 29.6966 372.609 26.6615 372.609 23.0156C372.609 20.6641 373.512 18.6589 375.316 17C377.139 15.3229 379.464 14.4844 382.289 14.4844C384.221 14.4844 386.035 14.9128 387.73 15.7695C389.444 16.6081 390.893 17.8203 392.078 19.4062Z" fill="#231F20"/>
<path d="M137.612 64.3594V61.7061H152.586V64.3594H146.5V89H143.717V64.3594H137.612ZM174.97 82.3018L177.16 83.4521C176.442 84.8623 175.614 86.0003 174.673 86.8662C173.733 87.7321 172.676 88.3939 171.501 88.8516C170.325 89.2969 168.996 89.5195 167.511 89.5195C164.221 89.5195 161.648 88.4434 159.793 86.291C157.937 84.1263 157.009 81.6833 157.009 78.9619C157.009 76.4014 157.795 74.1191 159.366 72.1152C161.357 69.5671 164.023 68.293 167.363 68.293C170.802 68.293 173.548 69.598 175.601 72.208C177.061 74.0511 177.803 76.3519 177.828 79.1104H159.681C159.731 81.4606 160.479 83.3903 161.926 84.8994C163.374 86.3962 165.161 87.1445 167.289 87.1445C168.315 87.1445 169.311 86.9652 170.276 86.6064C171.253 86.2477 172.082 85.7715 172.762 85.1777C173.443 84.584 174.179 83.6253 174.97 82.3018ZM174.97 76.8652C174.624 75.4798 174.117 74.3727 173.449 73.5439C172.793 72.7152 171.921 72.0472 170.833 71.54C169.744 71.0329 168.6 70.7793 167.4 70.7793C165.421 70.7793 163.72 71.4163 162.297 72.6904C161.258 73.6182 160.473 75.0098 159.941 76.8652H174.97ZM204.183 73.0059L202.123 74.2861C200.342 71.9235 197.911 70.7422 194.831 70.7422C192.37 70.7422 190.322 71.5339 188.69 73.1172C187.069 74.7005 186.259 76.624 186.259 78.8877C186.259 80.3597 186.63 81.7451 187.372 83.0439C188.127 84.3428 189.154 85.3509 190.452 86.0684C191.764 86.7858 193.229 87.1445 194.85 87.1445C197.819 87.1445 200.243 85.9632 202.123 83.6006L204.183 84.9551C203.218 86.4023 201.919 87.528 200.286 88.332C198.666 89.1237 196.817 89.5195 194.738 89.5195C191.547 89.5195 188.9 88.5052 186.797 86.4766C184.694 84.4479 183.643 81.9801 183.643 79.0732C183.643 77.1188 184.131 75.3066 185.109 73.6367C186.098 71.9544 187.453 70.6432 189.172 69.7031C190.891 68.763 192.815 68.293 194.943 68.293C196.279 68.293 197.565 68.4971 198.802 68.9053C200.051 69.3135 201.109 69.8454 201.975 70.501C202.841 71.1566 203.577 71.9915 204.183 73.0059ZM211.093 61.0195H213.69V72.4307C214.742 71.0452 215.898 70.0124 217.16 69.332C218.422 68.6393 219.789 68.293 221.261 68.293C222.77 68.293 224.106 68.6764 225.268 69.4434C226.443 70.2103 227.309 71.2432 227.866 72.542C228.423 73.8285 228.701 75.8509 228.701 78.6094V89H226.103V79.3701C226.103 77.0446 226.011 75.4922 225.825 74.7129C225.503 73.377 224.916 72.375 224.062 71.707C223.221 71.0267 222.114 70.6865 220.741 70.6865C219.17 70.6865 217.76 71.2061 216.511 72.2451C215.274 73.2842 214.457 74.5706 214.061 76.1045C213.814 77.0941 213.69 78.9248 213.69 81.5967V89H211.093V61.0195ZM236.186 68.8125H238.784V72.4307C239.823 71.0452 240.973 70.0124 242.235 69.332C243.496 68.6393 244.87 68.293 246.354 68.293C247.863 68.293 249.199 68.6764 250.362 69.4434C251.537 70.2103 252.403 71.2432 252.959 72.542C253.516 73.8408 253.794 75.8633 253.794 78.6094V89H251.215V79.3701C251.215 77.0446 251.116 75.4922 250.918 74.7129C250.609 73.377 250.028 72.375 249.174 71.707C248.321 71.0267 247.207 70.6865 245.834 70.6865C244.263 70.6865 242.853 71.2061 241.604 72.2451C240.367 73.2842 239.551 74.5706 239.155 76.1045C238.907 77.1064 238.784 78.9372 238.784 81.5967V89H236.186V68.8125ZM270.835 68.293C273.94 68.293 276.513 69.4186 278.554 71.6699C280.409 73.7233 281.337 76.154 281.337 78.9619C281.337 81.7822 280.354 84.25 278.387 86.3652C276.432 88.4681 273.915 89.5195 270.835 89.5195C267.743 89.5195 265.213 88.4681 263.246 86.3652C261.292 84.25 260.314 81.7822 260.314 78.9619C260.314 76.1663 261.242 73.7419 263.098 71.6885C265.139 69.4248 267.718 68.293 270.835 68.293ZM270.835 70.835C268.683 70.835 266.833 71.6328 265.287 73.2285C263.741 74.8242 262.968 76.7539 262.968 79.0176C262.968 80.4772 263.32 81.8379 264.025 83.0996C264.73 84.3613 265.683 85.3385 266.883 86.0312C268.083 86.7116 269.4 87.0518 270.835 87.0518C272.27 87.0518 273.587 86.7116 274.787 86.0312C275.987 85.3385 276.939 84.3613 277.645 83.0996C278.35 81.8379 278.702 80.4772 278.702 79.0176C278.702 76.7539 277.923 74.8242 276.364 73.2285C274.818 71.6328 272.975 70.835 270.835 70.835ZM287.69 61.0195H290.288V89H287.69V61.0195ZM307.143 68.293C310.248 68.293 312.821 69.4186 314.862 71.6699C316.717 73.7233 317.645 76.154 317.645 78.9619C317.645 81.7822 316.661 84.25 314.695 86.3652C312.74 88.4681 310.223 89.5195 307.143 89.5195C304.05 89.5195 301.521 88.4681 299.554 86.3652C297.599 84.25 296.622 81.7822 296.622 78.9619C296.622 76.1663 297.55 73.7419 299.405 71.6885C301.446 69.4248 304.026 68.293 307.143 68.293ZM307.143 70.835C304.99 70.835 303.141 71.6328 301.595 73.2285C300.049 74.8242 299.276 76.7539 299.276 79.0176C299.276 80.4772 299.628 81.8379 300.333 83.0996C301.038 84.3613 301.991 85.3385 303.191 86.0312C304.39 86.7116 305.708 87.0518 307.143 87.0518C308.578 87.0518 309.895 86.7116 311.095 86.0312C312.295 85.3385 313.247 84.3613 313.952 83.0996C314.657 81.8379 315.01 80.4772 315.01 79.0176C315.01 76.7539 314.231 74.8242 312.672 73.2285C311.126 71.6328 309.283 70.835 307.143 70.835ZM341.773 68.8125H344.389V84.8994C344.389 87.7321 344.142 89.804 343.647 91.1152C342.967 92.9707 341.786 94.3994 340.103 95.4014C338.421 96.4033 336.399 96.9043 334.036 96.9043C332.304 96.9043 330.746 96.6569 329.36 96.1621C327.987 95.6797 326.868 95.0241 326.002 94.1953C325.136 93.3789 324.338 92.179 323.608 90.5957H326.429C327.195 91.9316 328.185 92.9212 329.397 93.5645C330.61 94.2077 332.112 94.5293 333.906 94.5293C335.675 94.5293 337.165 94.1953 338.378 93.5273C339.602 92.8717 340.474 92.043 340.994 91.041C341.513 90.0391 341.773 88.4248 341.773 86.1982V85.1592C340.796 86.3962 339.602 87.3486 338.192 88.0166C336.782 88.6722 335.285 89 333.702 89C331.846 89 330.102 88.5423 328.47 87.627C326.837 86.6992 325.575 85.4561 324.684 83.8975C323.794 82.3389 323.348 80.6257 323.348 78.7578C323.348 76.89 323.812 75.152 324.74 73.5439C325.668 71.9235 326.948 70.6432 328.581 69.7031C330.226 68.763 331.958 68.293 333.776 68.293C335.285 68.293 336.689 68.6084 337.988 69.2393C339.299 69.8577 340.561 70.8844 341.773 72.3193V68.8125ZM334.11 70.7979C332.638 70.7979 331.271 71.1566 330.01 71.874C328.748 72.5791 327.758 73.5625 327.041 74.8242C326.323 76.0736 325.965 77.4281 325.965 78.8877C325.965 81.1019 326.707 82.9326 328.191 84.3799C329.676 85.8271 331.599 86.5508 333.962 86.5508C336.349 86.5508 338.266 85.8333 339.714 84.3984C341.173 82.9635 341.903 81.0771 341.903 78.7393C341.903 77.2178 341.569 75.8633 340.901 74.6758C340.233 73.4759 339.287 72.5296 338.062 71.8369C336.838 71.1442 335.52 70.7979 334.11 70.7979ZM352.765 60.5C353.359 60.5 353.866 60.7103 354.287 61.1309C354.707 61.5514 354.917 62.0586 354.917 62.6523C354.917 63.2337 354.707 63.7347 354.287 64.1553C353.866 64.5758 353.359 64.7861 352.765 64.7861C352.184 64.7861 351.683 64.5758 351.262 64.1553C350.842 63.7347 350.631 63.2337 350.631 62.6523C350.631 62.0586 350.842 61.5514 351.262 61.1309C351.683 60.7103 352.184 60.5 352.765 60.5ZM351.466 68.8125H354.082V89H351.466V68.8125ZM378.359 82.3018L380.549 83.4521C379.831 84.8623 379.003 86.0003 378.062 86.8662C377.122 87.7321 376.065 88.3939 374.89 88.8516C373.715 89.2969 372.385 89.5195 370.9 89.5195C367.61 89.5195 365.037 88.4434 363.182 86.291C361.326 84.1263 360.398 81.6833 360.398 78.9619C360.398 76.4014 361.184 74.1191 362.755 72.1152C364.746 69.5671 367.412 68.293 370.752 68.293C374.191 68.293 376.937 69.598 378.99 72.208C380.45 74.0511 381.192 76.3519 381.217 79.1104H363.07C363.12 81.4606 363.868 83.3903 365.315 84.8994C366.763 86.3962 368.55 87.1445 370.678 87.1445C371.704 87.1445 372.7 86.9652 373.665 86.6064C374.642 86.2477 375.471 85.7715 376.151 85.1777C376.832 84.584 377.568 83.6253 378.359 82.3018ZM378.359 76.8652C378.013 75.4798 377.506 74.3727 376.838 73.5439C376.182 72.7152 375.31 72.0472 374.222 71.54C373.133 71.0329 371.989 70.7793 370.789 70.7793C368.81 70.7793 367.109 71.4163 365.687 72.6904C364.647 73.6182 363.862 75.0098 363.33 76.8652H378.359ZM398.128 71.0205L396.458 72.7461C395.072 71.3978 393.718 70.7236 392.394 70.7236C391.553 70.7236 390.829 71.002 390.223 71.5586C389.629 72.1152 389.333 72.7646 389.333 73.5068C389.333 74.1624 389.58 74.7871 390.075 75.3809C390.57 75.987 391.609 76.6982 393.192 77.5146C395.122 78.5166 396.433 79.4814 397.126 80.4092C397.806 81.3493 398.146 82.4069 398.146 83.582C398.146 85.2396 397.565 86.6436 396.402 87.7939C395.239 88.9443 393.786 89.5195 392.042 89.5195C390.879 89.5195 389.766 89.266 388.702 88.7588C387.65 88.2516 386.778 87.5527 386.086 86.6621L387.718 84.8066C389.042 86.3034 390.446 87.0518 391.93 87.0518C392.969 87.0518 393.854 86.7178 394.584 86.0498C395.313 85.3818 395.678 84.5964 395.678 83.6934C395.678 82.9512 395.437 82.2894 394.955 81.708C394.472 81.139 393.384 80.4215 391.689 79.5557C389.871 78.6156 388.634 77.6878 387.978 76.7725C387.323 75.8571 386.995 74.8118 386.995 73.6367C386.995 72.1029 387.514 70.8288 388.553 69.8145C389.605 68.8001 390.928 68.293 392.524 68.293C394.379 68.293 396.247 69.2021 398.128 71.0205Z" fill="#231F20"/>
<path d="M173.98 122.44C173.727 122.453 173.52 122.387 173.36 122.24C173.2 122.08 173.12 121.86 173.12 121.58C173.12 121.327 173.207 121.113 173.38 120.94C173.553 120.767 173.753 120.68 173.98 120.68C174.207 120.667 174.547 120.653 175 120.64C175.453 120.627 175.933 120.62 176.44 120.62C176.947 120.607 177.407 120.6 177.82 120.6C178.247 120.6 178.54 120.607 178.7 120.62C178.967 120.633 179.167 120.713 179.3 120.86C179.447 120.993 179.52 121.173 179.52 121.4C179.52 121.64 179.447 121.867 179.3 122.08C179.167 122.293 178.967 122.393 178.7 122.38C178.54 122.367 178.247 122.36 177.82 122.36C177.407 122.36 176.947 122.367 176.44 122.38C175.933 122.38 175.453 122.387 175 122.4C174.547 122.4 174.207 122.413 173.98 122.44ZM191.052 127.98C190.906 127.98 190.766 127.947 190.632 127.88C190.499 127.8 190.386 127.7 190.292 127.58C190.212 127.447 190.172 127.313 190.172 127.18C190.172 125.647 190.186 124.133 190.212 122.64C190.239 121.147 190.272 119.66 190.312 118.18C190.366 116.687 190.426 115.193 190.492 113.7C190.506 113.407 190.606 113.193 190.792 113.06C190.979 112.913 191.186 112.84 191.412 112.84C191.572 112.84 191.719 112.873 191.852 112.94C191.999 112.993 192.112 113.087 192.192 113.22C192.286 113.34 192.326 113.5 192.312 113.7C192.246 115.193 192.186 116.687 192.132 118.18C192.092 119.66 192.059 121.147 192.032 122.64C192.006 124.133 191.992 125.647 191.992 127.18C191.992 127.287 191.966 127.387 191.912 127.48C191.859 127.573 191.786 127.66 191.692 127.74C191.599 127.807 191.492 127.867 191.372 127.92C191.266 127.96 191.159 127.98 191.052 127.98ZM192.312 128.56C191.939 128.56 191.586 128.547 191.252 128.52C190.932 128.507 190.646 128.473 190.392 128.42C190.086 128.353 189.866 128.247 189.732 128.1C189.599 127.953 189.532 127.773 189.532 127.56C189.532 127.333 189.606 127.14 189.752 126.98C189.912 126.82 190.112 126.747 190.352 126.76C190.699 126.787 191.046 126.813 191.392 126.84C191.739 126.853 192.079 126.86 192.412 126.86C193.212 126.86 193.959 126.793 194.652 126.66C195.346 126.513 195.952 126.293 196.472 126C196.992 125.693 197.399 125.313 197.692 124.86C197.986 124.407 198.132 123.867 198.132 123.24C198.132 122.56 197.872 122.007 197.352 121.58C196.832 121.153 196.046 120.94 194.992 120.94C194.552 120.94 194.039 120.987 193.452 121.08C192.879 121.173 192.272 121.287 191.632 121.42C191.446 121.447 191.266 121.433 191.092 121.38C190.919 121.327 190.779 121.233 190.672 121.1C190.566 120.967 190.512 120.793 190.512 120.58C190.512 120.46 190.539 120.333 190.592 120.2C190.659 120.067 190.752 119.953 190.872 119.86C191.006 119.753 191.179 119.687 191.392 119.66C193.086 119.46 194.446 119.187 195.472 118.84C196.499 118.48 197.239 118.047 197.692 117.54C198.159 117.033 198.392 116.473 198.392 115.86C198.392 115.46 198.246 115.12 197.952 114.84C197.672 114.56 197.272 114.347 196.752 114.2C196.246 114.053 195.646 113.98 194.952 113.98C194.352 113.98 193.699 114.047 192.992 114.18C192.286 114.3 191.599 114.433 190.932 114.58C190.639 114.633 190.379 114.58 190.152 114.42C189.939 114.247 189.832 114.02 189.832 113.74C189.832 113.487 189.952 113.287 190.192 113.14C190.432 112.98 190.692 112.873 190.972 112.82C191.639 112.7 192.312 112.587 192.992 112.48C193.672 112.36 194.346 112.3 195.012 112.3C195.906 112.3 196.746 112.433 197.532 112.7C198.332 112.967 198.979 113.36 199.472 113.88C199.979 114.387 200.232 115.027 200.232 115.8C200.232 116.307 200.119 116.813 199.892 117.32C199.679 117.827 199.352 118.293 198.912 118.72C198.472 119.147 197.919 119.5 197.252 119.78C197.799 119.953 198.272 120.2 198.672 120.52C199.086 120.827 199.406 121.213 199.632 121.68C199.872 122.133 199.992 122.687 199.992 123.34C199.992 124.327 199.759 125.16 199.292 125.84C198.826 126.507 198.212 127.04 197.452 127.44C196.706 127.84 195.879 128.127 194.972 128.3C194.079 128.473 193.192 128.56 192.312 128.56ZM203.546 124.24L203.026 122.82C204.466 122.62 205.592 122.353 206.406 122.02C207.232 121.687 207.812 121.333 208.146 120.96C208.492 120.573 208.666 120.213 208.666 119.88C208.666 119.507 208.539 119.227 208.286 119.04C208.046 118.84 207.739 118.74 207.366 118.74C207.032 118.74 206.672 118.827 206.286 119C205.912 119.16 205.559 119.407 205.226 119.74C204.906 120.073 204.639 120.487 204.426 120.98C204.226 121.473 204.126 122.053 204.126 122.72C204.126 123.613 204.279 124.36 204.586 124.96C204.892 125.547 205.286 125.987 205.766 126.28C206.259 126.573 206.772 126.72 207.306 126.72C207.732 126.72 208.139 126.64 208.526 126.48C208.912 126.32 209.266 126.073 209.586 125.74C209.732 125.58 209.886 125.44 210.046 125.32C210.206 125.187 210.379 125.12 210.566 125.12C210.726 125.12 210.859 125.153 210.966 125.22C211.086 125.287 211.172 125.38 211.226 125.5C211.292 125.607 211.326 125.733 211.326 125.88C211.326 126.013 211.306 126.133 211.266 126.24C211.239 126.347 211.179 126.453 211.086 126.56C210.766 126.96 210.392 127.3 209.966 127.58C209.552 127.847 209.112 128.047 208.646 128.18C208.192 128.313 207.732 128.38 207.266 128.38C206.626 128.38 206.006 128.26 205.406 128.02C204.819 127.78 204.286 127.427 203.806 126.96C203.339 126.48 202.966 125.893 202.686 125.2C202.406 124.493 202.266 123.687 202.266 122.78C202.266 121.833 202.426 121.013 202.746 120.32C203.066 119.613 203.479 119.027 203.986 118.56C204.506 118.08 205.072 117.727 205.686 117.5C206.299 117.26 206.906 117.14 207.506 117.14C208.066 117.14 208.579 117.24 209.046 117.44C209.512 117.64 209.879 117.94 210.146 118.34C210.426 118.74 210.566 119.24 210.566 119.84C210.566 120.253 210.446 120.687 210.206 121.14C209.979 121.58 209.592 122.007 209.046 122.42C208.512 122.82 207.792 123.18 206.886 123.5C205.992 123.82 204.879 124.067 203.546 124.24ZM213.891 118.04C213.904 117.76 214.004 117.553 214.191 117.42C214.377 117.287 214.591 117.22 214.831 117.22C214.977 117.22 215.117 117.253 215.251 117.32C215.397 117.373 215.511 117.46 215.591 117.58C215.684 117.7 215.724 117.853 215.711 118.04C215.684 118.547 215.664 119.1 215.651 119.7C215.651 120.3 215.657 120.913 215.671 121.54C215.684 122.167 215.711 122.78 215.751 123.38C215.791 123.98 215.851 124.533 215.931 125.04C215.997 125.533 216.057 125.96 216.111 126.32C216.177 126.68 216.211 126.973 216.211 127.2C216.211 127.467 216.157 127.693 216.051 127.88C215.944 128.053 215.744 128.14 215.451 128.14C215.291 128.14 215.137 128.113 214.991 128.06C214.857 128.007 214.737 127.873 214.631 127.66C214.511 127.42 214.404 127.047 214.311 126.54C214.217 126.02 214.131 125.427 214.051 124.76C213.984 124.08 213.931 123.387 213.891 122.68C213.864 121.96 213.851 121.28 213.851 120.64C213.851 120.24 213.851 119.88 213.851 119.56C213.864 119.227 213.871 118.933 213.871 118.68C213.884 118.427 213.891 118.213 213.891 118.04ZM213.631 112.92C213.631 112.707 213.691 112.513 213.811 112.34C213.944 112.167 214.117 112.027 214.331 111.92C214.544 111.8 214.764 111.74 214.991 111.74C215.177 111.74 215.384 111.793 215.611 111.9C215.837 111.993 216.031 112.14 216.191 112.34C216.364 112.527 216.451 112.76 216.451 113.04C216.451 113.24 216.404 113.433 216.311 113.62C216.217 113.793 216.084 113.933 215.911 114.04C215.751 114.147 215.557 114.2 215.331 114.2C215.091 114.2 214.837 114.147 214.571 114.04C214.304 113.933 214.077 113.787 213.891 113.6C213.717 113.4 213.631 113.173 213.631 112.92ZM219.673 117.66C219.713 117.487 219.779 117.353 219.873 117.26C219.966 117.167 220.073 117.1 220.193 117.06C220.326 117.02 220.446 117 220.553 117C220.793 117 220.999 117.08 221.173 117.24C221.359 117.387 221.453 117.573 221.453 117.8C221.453 117.867 221.439 118.007 221.413 118.22C221.386 118.42 221.359 118.64 221.333 118.88C221.306 119.12 221.286 119.347 221.273 119.56C221.713 118.8 222.226 118.187 222.813 117.72C223.413 117.253 224.086 117.02 224.833 117.02C225.979 117.02 226.839 117.447 227.413 118.3C227.986 119.14 228.273 120.253 228.273 121.64C228.273 122.147 228.246 122.647 228.193 123.14C228.139 123.62 228.073 124.1 227.993 124.58C227.913 125.047 227.846 125.513 227.793 125.98C227.739 126.433 227.713 126.88 227.713 127.32C227.713 127.613 227.619 127.827 227.433 127.96C227.246 128.093 227.039 128.16 226.813 128.16C226.573 128.16 226.353 128.093 226.153 127.96C225.966 127.827 225.873 127.62 225.873 127.34C225.873 126.847 225.899 126.373 225.953 125.92C226.006 125.453 226.073 124.993 226.153 124.54C226.233 124.073 226.299 123.607 226.353 123.14C226.406 122.66 226.433 122.173 226.433 121.68C226.433 120.893 226.346 120.287 226.173 119.86C225.999 119.433 225.773 119.14 225.493 118.98C225.213 118.82 224.899 118.74 224.553 118.74C224.126 118.74 223.719 118.907 223.333 119.24C222.946 119.573 222.579 120.04 222.233 120.64C221.886 121.24 221.566 121.933 221.273 122.72C221.273 123.72 221.259 124.587 221.233 125.32C221.206 126.04 221.179 126.693 221.153 127.28C221.139 127.533 221.039 127.74 220.853 127.9C220.666 128.047 220.439 128.12 220.173 128.12C219.786 128.12 219.526 127.953 219.393 127.62C219.259 127.287 219.193 126.9 219.193 126.46C219.193 126.127 219.199 125.793 219.213 125.46C219.226 125.113 219.253 124.767 219.293 124.42C219.346 124.06 219.406 123.707 219.473 123.36C219.459 122.6 219.453 121.94 219.453 121.38C219.453 120.82 219.459 120.327 219.473 119.9C219.486 119.46 219.506 119.06 219.533 118.7C219.573 118.34 219.619 117.993 219.673 117.66ZM230.506 123.66C230.506 122.913 230.633 122.16 230.886 121.4C231.14 120.64 231.493 119.947 231.946 119.32C232.413 118.68 232.973 118.173 233.626 117.8C234.28 117.413 235.006 117.22 235.806 117.22C236.073 117.22 236.346 117.247 236.626 117.3C236.906 117.353 237.186 117.427 237.466 117.52L237.546 117.26C237.6 117.06 237.706 116.913 237.866 116.82C238.04 116.727 238.22 116.68 238.406 116.68C238.62 116.68 238.806 116.733 238.966 116.84C239.126 116.933 239.233 117.093 239.286 117.32C239.366 117.587 239.426 117.9 239.466 118.26C239.506 118.607 239.526 118.973 239.526 119.36C239.526 119.947 239.473 120.567 239.366 121.22C239.273 121.873 239.133 122.52 238.946 123.16C239 123.773 239.073 124.353 239.166 124.9C239.273 125.433 239.366 125.967 239.446 126.5C239.54 127.02 239.586 127.567 239.586 128.14C239.586 128.54 239.533 128.967 239.426 129.42C239.333 129.887 239.166 130.347 238.926 130.8C238.7 131.253 238.393 131.667 238.006 132.04C237.633 132.413 237.166 132.713 236.606 132.94C236.046 133.167 235.386 133.28 234.626 133.28C233.933 133.28 233.26 133.133 232.606 132.84C231.953 132.547 231.426 132.153 231.026 131.66C230.933 131.553 230.866 131.453 230.826 131.36C230.786 131.267 230.766 131.167 230.766 131.06C230.766 130.9 230.806 130.753 230.886 130.62C230.966 130.487 231.073 130.373 231.206 130.28C231.34 130.2 231.486 130.16 231.646 130.16C231.753 130.16 231.853 130.173 231.946 130.2C232.04 130.24 232.126 130.307 232.206 130.4C232.513 130.76 232.853 131.047 233.226 131.26C233.6 131.473 234.073 131.58 234.646 131.58C235.153 131.58 235.646 131.467 236.126 131.24C236.606 131.013 237 130.64 237.306 130.12C237.613 129.613 237.766 128.927 237.766 128.06C237.766 127.847 237.74 127.527 237.686 127.1C237.633 126.66 237.553 126.207 237.446 125.74C237.073 126.473 236.606 127.047 236.046 127.46C235.5 127.86 234.893 128.06 234.226 128.06C233.573 128.06 232.96 127.893 232.386 127.56C231.826 127.213 231.373 126.713 231.026 126.06C230.68 125.393 230.506 124.593 230.506 123.66ZM232.406 123.7C232.406 124.247 232.473 124.72 232.606 125.12C232.74 125.52 232.953 125.833 233.246 126.06C233.54 126.273 233.92 126.38 234.386 126.38C234.786 126.38 235.146 126.233 235.466 125.94C235.8 125.633 236.106 125.227 236.386 124.72C236.666 124.2 236.92 123.627 237.146 123C237.133 122.76 237.12 122.48 237.106 122.16C237.093 121.827 237.086 121.547 237.086 121.32C237.086 121.093 237.086 120.86 237.086 120.62C237.1 120.38 237.113 120.14 237.126 119.9C237.153 119.66 237.18 119.427 237.206 119.2C236.953 119.093 236.706 119.013 236.466 118.96C236.24 118.907 236 118.88 235.746 118.88C235.226 118.88 234.76 119.02 234.346 119.3C233.933 119.58 233.58 119.953 233.286 120.42C233.006 120.887 232.786 121.407 232.626 121.98C232.48 122.54 232.406 123.113 232.406 123.7ZM250.287 113.34C250.287 113.06 250.381 112.853 250.567 112.72C250.754 112.587 250.967 112.52 251.207 112.52C251.434 112.52 251.641 112.587 251.827 112.72C252.027 112.853 252.121 113.06 252.107 113.34C252.001 115.62 251.887 117.933 251.767 120.28C251.661 122.627 251.554 124.993 251.447 127.38C251.434 127.66 251.327 127.867 251.127 128C250.941 128.133 250.734 128.2 250.507 128.2C250.281 128.2 250.067 128.133 249.867 128C249.681 127.867 249.594 127.66 249.607 127.38C249.714 124.993 249.827 122.627 249.947 120.28C250.067 117.933 250.181 115.62 250.287 113.34ZM256.061 117.96C256.048 117.733 256.128 117.533 256.301 117.36C256.475 117.187 256.701 117.1 256.981 117.1C257.195 117.1 257.368 117.167 257.501 117.3C257.648 117.42 257.755 117.647 257.821 117.98C257.901 118.3 257.948 118.76 257.961 119.36C258.335 118.693 258.788 118.153 259.321 117.74C259.868 117.327 260.475 117.12 261.141 117.12C261.861 117.12 262.508 117.327 263.081 117.74C263.655 118.14 264.108 118.713 264.441 119.46C264.775 120.207 264.941 121.093 264.941 122.12C264.941 122.693 264.921 123.273 264.881 123.86C264.841 124.447 264.801 125.033 264.761 125.62C264.735 126.207 264.715 126.793 264.701 127.38C264.701 127.633 264.608 127.84 264.421 128C264.235 128.147 264.001 128.22 263.721 128.22C263.455 128.22 263.241 128.147 263.081 128C262.921 127.84 262.841 127.633 262.841 127.38C262.841 127.02 262.855 126.647 262.881 126.26C262.908 125.873 262.935 125.473 262.961 125.06C262.988 124.647 263.015 124.227 263.041 123.8C263.068 123.373 263.081 122.933 263.081 122.48C263.081 121.72 262.995 121.073 262.821 120.54C262.661 119.993 262.421 119.58 262.101 119.3C261.795 119.007 261.408 118.86 260.941 118.86C260.581 118.86 260.235 118.987 259.901 119.24C259.581 119.493 259.288 119.827 259.021 120.24C258.768 120.653 258.548 121.1 258.361 121.58C258.188 122.06 258.068 122.52 258.001 122.96C257.868 123.827 257.755 124.553 257.661 125.14C257.568 125.727 257.495 126.207 257.441 126.58C257.388 126.953 257.341 127.267 257.301 127.52C257.275 127.72 257.188 127.873 257.041 127.98C256.895 128.087 256.708 128.14 256.481 128.14C256.241 128.14 256.041 128.1 255.881 128.02C255.735 127.953 255.628 127.853 255.561 127.72C255.508 127.573 255.495 127.413 255.521 127.24C255.655 126.44 255.768 125.653 255.861 124.88C255.955 124.093 256.021 123.327 256.061 122.58C256.115 121.82 256.141 121.1 256.141 120.42C256.141 120.007 256.135 119.66 256.121 119.38C256.121 119.087 256.115 118.827 256.101 118.6C256.101 118.373 256.088 118.16 256.061 117.96ZM276.084 128.24C275.937 128.24 275.784 128.207 275.624 128.14C275.477 128.087 275.357 128 275.264 127.88C275.17 127.76 275.13 127.607 275.144 127.42C275.25 126.527 275.35 125.667 275.444 124.84C275.55 124 275.604 123.14 275.604 122.26C275.604 121.62 275.557 121.027 275.464 120.48C275.37 119.933 275.21 119.493 274.984 119.16C274.77 118.813 274.477 118.64 274.104 118.64C273.584 118.64 273.077 118.86 272.584 119.3C272.104 119.727 271.65 120.46 271.224 121.5C271.077 121.873 270.937 122.247 270.804 122.62C270.684 122.98 270.57 123.347 270.464 123.72C270.357 124.08 270.257 124.453 270.164 124.84C270.137 124.987 270.104 125.167 270.064 125.38C270.037 125.593 270.004 125.813 269.964 126.04C269.924 126.267 269.884 126.487 269.844 126.7C269.817 126.913 269.784 127.093 269.744 127.24C269.664 127.533 269.537 127.753 269.364 127.9C269.19 128.033 268.99 128.1 268.764 128.1C268.47 128.1 268.257 128.027 268.124 127.88C267.99 127.72 267.917 127.52 267.904 127.28C267.904 127.213 267.904 127.147 267.904 127.08C267.917 127 267.93 126.907 267.944 126.8C267.957 126.693 267.977 126.567 268.004 126.42C268.15 125.673 268.277 124.873 268.384 124.02C268.504 123.153 268.564 122.26 268.564 121.34C268.564 121.02 268.55 120.64 268.524 120.2C268.51 119.76 268.49 119.34 268.464 118.94C268.437 118.54 268.41 118.247 268.384 118.06C268.384 117.94 268.397 117.8 268.424 117.64C268.464 117.48 268.544 117.347 268.664 117.24C268.797 117.12 268.99 117.06 269.244 117.06C269.484 117.06 269.67 117.113 269.804 117.22C269.937 117.313 270.037 117.453 270.104 117.64C270.144 117.747 270.177 117.9 270.204 118.1C270.244 118.3 270.27 118.52 270.284 118.76C270.31 118.987 270.324 119.207 270.324 119.42C270.324 119.62 270.324 119.787 270.324 119.92C270.617 119.347 270.944 118.833 271.304 118.38C271.664 117.927 272.077 117.567 272.544 117.3C273.024 117.033 273.564 116.9 274.164 116.9C274.79 116.9 275.31 117.053 275.724 117.36C276.15 117.653 276.484 118.047 276.724 118.54C276.977 119.033 277.157 119.58 277.264 120.18C277.37 120.78 277.424 121.387 277.424 122C277.424 122.44 277.404 122.907 277.364 123.4C277.337 123.88 277.297 124.36 277.244 124.84C277.204 125.32 277.15 125.78 277.084 126.22C277.03 126.66 276.984 127.06 276.944 127.42C276.917 127.7 276.824 127.907 276.664 128.04C276.504 128.173 276.31 128.24 276.084 128.24ZM288.987 122.02C288.987 122.833 288.86 123.607 288.607 124.34C288.367 125.06 288.02 125.7 287.567 126.26C287.127 126.807 286.607 127.24 286.007 127.56C285.407 127.867 284.76 128.02 284.067 128.02C283.227 128.02 282.48 127.813 281.827 127.4C281.173 126.987 280.66 126.42 280.287 125.7C279.913 124.967 279.727 124.133 279.727 123.2C279.727 122.36 279.853 121.567 280.107 120.82C280.373 120.073 280.733 119.42 281.187 118.86C281.653 118.287 282.187 117.84 282.787 117.52C283.4 117.187 284.053 117.02 284.747 117.02C285.587 117.02 286.32 117.247 286.947 117.7C287.587 118.14 288.087 118.74 288.447 119.5C288.807 120.247 288.987 121.087 288.987 122.02ZM281.587 123.12C281.587 123.773 281.687 124.34 281.887 124.82C282.087 125.3 282.373 125.673 282.747 125.94C283.133 126.207 283.58 126.34 284.087 126.34C284.673 126.34 285.2 126.147 285.667 125.76C286.133 125.36 286.5 124.833 286.767 124.18C287.033 123.513 287.167 122.773 287.167 121.96C287.167 121.333 287.053 120.773 286.827 120.28C286.6 119.787 286.293 119.4 285.907 119.12C285.533 118.84 285.1 118.7 284.607 118.7C284.073 118.7 283.573 118.907 283.107 119.32C282.653 119.72 282.287 120.253 282.007 120.92C281.727 121.587 281.587 122.32 281.587 123.12ZM290.896 118.44C290.896 118.173 290.989 117.967 291.176 117.82C291.363 117.673 291.563 117.6 291.776 117.6C291.883 117.6 291.996 117.627 292.116 117.68C292.236 117.72 292.336 117.807 292.416 117.94C292.789 118.593 293.129 119.333 293.436 120.16C293.743 120.973 294.023 121.847 294.276 122.78C294.543 123.713 294.783 124.68 294.996 125.68C295.409 124.693 295.796 123.76 296.156 122.88C296.529 122 296.903 121.133 297.276 120.28C297.649 119.413 298.036 118.533 298.436 117.64C298.503 117.48 298.596 117.367 298.716 117.3C298.849 117.233 299.003 117.2 299.176 117.2C299.323 117.2 299.463 117.233 299.596 117.3C299.743 117.353 299.863 117.44 299.956 117.56C300.049 117.667 300.096 117.8 300.096 117.96C300.096 118.093 300.056 118.273 299.976 118.5C299.909 118.713 299.816 118.953 299.696 119.22C299.589 119.473 299.483 119.72 299.376 119.96C299.269 120.2 299.176 120.4 299.096 120.56C298.936 120.907 298.736 121.347 298.496 121.88C298.256 122.413 297.996 122.98 297.716 123.58C297.449 124.18 297.183 124.773 296.916 125.36C296.649 125.933 296.403 126.453 296.176 126.92C295.949 127.373 295.749 127.707 295.576 127.92C295.403 128.12 295.243 128.247 295.096 128.3C294.949 128.367 294.796 128.4 294.636 128.4C294.436 128.4 294.256 128.34 294.096 128.22C293.936 128.113 293.829 127.947 293.776 127.72C293.443 126.213 293.036 124.733 292.556 123.28C292.089 121.813 291.563 120.333 290.976 118.84C290.949 118.773 290.929 118.707 290.916 118.64C290.903 118.56 290.896 118.493 290.896 118.44ZM309.974 128.34C309.721 128.34 309.474 128.28 309.234 128.16C308.994 128.053 308.781 127.84 308.594 127.52C308.408 127.187 308.261 126.7 308.154 126.06C307.861 126.607 307.461 127.087 306.954 127.5C306.461 127.913 305.848 128.12 305.114 128.12C304.301 128.12 303.594 127.907 302.994 127.48C302.394 127.04 301.928 126.453 301.594 125.72C301.261 124.973 301.094 124.147 301.094 123.24C301.094 122.48 301.221 121.733 301.474 121C301.728 120.253 302.081 119.587 302.534 119C303.001 118.4 303.541 117.92 304.154 117.56C304.781 117.2 305.454 117.02 306.174 117.02C306.561 117.02 306.968 117.087 307.394 117.22C307.821 117.353 308.248 117.553 308.674 117.82C308.714 117.553 308.808 117.36 308.954 117.24C309.101 117.12 309.294 117.06 309.534 117.06C309.761 117.06 309.934 117.113 310.054 117.22C310.188 117.313 310.281 117.433 310.334 117.58C310.388 117.727 310.414 117.887 310.414 118.06C310.414 118.18 310.401 118.307 310.374 118.44C310.361 118.573 310.341 118.707 310.314 118.84C310.288 118.973 310.261 119.113 310.234 119.26C310.181 119.66 310.114 120.16 310.034 120.76C309.968 121.36 309.908 121.967 309.854 122.58C309.814 123.18 309.794 123.693 309.794 124.12C309.794 124.56 309.801 124.947 309.814 125.28C309.841 125.613 309.874 125.893 309.914 126.12C309.968 126.347 310.034 126.533 310.114 126.68C310.354 126.547 310.574 126.387 310.774 126.2C310.988 126 311.141 125.847 311.234 125.74C311.314 125.633 311.401 125.567 311.494 125.54C311.601 125.5 311.701 125.48 311.794 125.48C312.021 125.48 312.201 125.553 312.334 125.7C312.481 125.847 312.554 126.013 312.554 126.2C312.554 126.293 312.534 126.4 312.494 126.52C312.468 126.627 312.428 126.72 312.374 126.8C312.054 127.293 311.681 127.673 311.254 127.94C310.828 128.207 310.401 128.34 309.974 128.34ZM305.274 126.46C305.728 126.46 306.121 126.273 306.454 125.9C306.801 125.527 307.101 125.027 307.354 124.4C307.608 123.76 307.821 123.04 307.994 122.24L308.394 119.58C308.034 119.287 307.674 119.067 307.314 118.92C306.954 118.76 306.581 118.68 306.194 118.68C305.874 118.68 305.528 118.773 305.154 118.96C304.781 119.147 304.428 119.433 304.094 119.82C303.761 120.193 303.488 120.673 303.274 121.26C303.061 121.847 302.954 122.533 302.954 123.32C302.954 123.893 303.034 124.42 303.194 124.9C303.368 125.367 303.621 125.747 303.954 126.04C304.301 126.32 304.741 126.46 305.274 126.46ZM314.998 115.3C315.024 115.073 315.118 114.913 315.278 114.82C315.451 114.713 315.631 114.66 315.818 114.66C315.991 114.66 316.158 114.7 316.318 114.78C316.491 114.847 316.624 114.96 316.718 115.12C316.811 115.28 316.824 115.487 316.758 115.74C316.704 116.047 316.651 116.36 316.598 116.68C316.544 116.987 316.491 117.307 316.438 117.64C316.411 117.867 316.378 118.193 316.338 118.62C316.298 119.033 316.258 119.48 316.218 119.96C316.191 120.44 316.164 120.893 316.138 121.32C316.111 121.733 316.098 122.06 316.098 122.3C316.098 122.927 316.118 123.527 316.158 124.1C316.211 124.673 316.284 125.14 316.378 125.5C316.444 125.78 316.531 126.013 316.638 126.2C316.744 126.387 316.858 126.48 316.978 126.48C317.071 126.48 317.178 126.453 317.298 126.4C317.431 126.347 317.591 126.233 317.778 126.06C317.884 125.953 318.011 125.873 318.158 125.82C318.304 125.753 318.424 125.72 318.518 125.72C318.678 125.72 318.818 125.76 318.938 125.84C319.071 125.92 319.178 126.027 319.258 126.16C319.338 126.28 319.378 126.407 319.378 126.54C319.378 126.687 319.338 126.827 319.258 126.96C319.191 127.08 319.104 127.2 318.998 127.32C318.758 127.56 318.438 127.767 318.038 127.94C317.651 128.1 317.264 128.18 316.878 128.18C316.451 128.18 316.071 128.073 315.738 127.86C315.418 127.647 315.164 127.353 314.978 126.98C314.804 126.673 314.664 126.287 314.558 125.82C314.464 125.34 314.391 124.853 314.338 124.36C314.298 123.853 314.271 123.4 314.258 123C314.244 122.587 314.238 122.3 314.238 122.14C314.238 120.98 314.318 119.827 314.478 118.68C314.638 117.52 314.811 116.393 314.998 115.3ZM314.158 119.34C313.824 119.38 313.584 119.313 313.438 119.14C313.304 118.953 313.238 118.753 313.238 118.54C313.238 118.313 313.304 118.127 313.438 117.98C313.571 117.82 313.778 117.72 314.058 117.68C314.538 117.613 315.024 117.56 315.518 117.52C316.024 117.467 316.524 117.427 317.018 117.4C317.524 117.36 318.011 117.327 318.478 117.3C318.718 117.287 318.911 117.367 319.058 117.54C319.218 117.7 319.304 117.887 319.318 118.1C319.331 118.353 319.251 118.56 319.078 118.72C318.904 118.88 318.704 118.967 318.478 118.98C318.011 119.007 317.531 119.04 317.038 119.08C316.544 119.107 316.051 119.147 315.558 119.2C315.078 119.24 314.611 119.287 314.158 119.34ZM321.878 117.86C321.878 117.593 321.972 117.393 322.158 117.26C322.345 117.127 322.545 117.06 322.758 117.06C322.918 117.06 323.065 117.093 323.198 117.16C323.345 117.213 323.465 117.3 323.558 117.42C323.652 117.54 323.692 117.693 323.678 117.88C323.625 118.52 323.578 119.173 323.538 119.84C323.498 120.507 323.465 121.227 323.438 122C323.425 122.76 323.412 123.6 323.398 124.52C323.398 125.44 323.398 126.473 323.398 127.62C323.398 127.833 323.325 128.02 323.178 128.18C323.045 128.353 322.825 128.44 322.518 128.44C322.198 128.44 321.992 128.373 321.898 128.24C321.805 128.107 321.732 127.88 321.678 127.56C321.625 127.28 321.585 126.94 321.558 126.54C321.545 126.127 321.538 125.687 321.538 125.22C321.538 124.513 321.552 123.78 321.578 123.02C321.618 122.247 321.658 121.513 321.698 120.82C321.738 120.113 321.772 119.5 321.798 118.98C321.838 118.447 321.865 118.073 321.878 117.86ZM321.718 113.58C321.718 113.153 321.852 112.833 322.118 112.62C322.398 112.393 322.672 112.28 322.938 112.28C323.325 112.28 323.645 112.42 323.898 112.7C324.152 112.98 324.278 113.293 324.278 113.64C324.278 113.813 324.218 114 324.098 114.2C323.992 114.4 323.832 114.573 323.618 114.72C323.418 114.867 323.178 114.94 322.898 114.94C322.525 114.94 322.232 114.8 322.018 114.52C321.818 114.227 321.718 113.913 321.718 113.58ZM326.006 118.34C325.992 118.273 325.979 118.22 325.966 118.18C325.952 118.127 325.946 118.073 325.946 118.02C325.946 117.78 326.039 117.587 326.226 117.44C326.426 117.28 326.646 117.2 326.886 117.2C327.086 117.2 327.259 117.253 327.406 117.36C327.566 117.453 327.672 117.607 327.726 117.82C327.926 118.433 328.132 119.047 328.346 119.66C328.572 120.26 328.799 120.873 329.026 121.5C329.252 122.127 329.472 122.76 329.686 123.4C329.912 124.04 330.126 124.693 330.326 125.36C330.619 124.627 330.899 123.927 331.166 123.26C331.432 122.58 331.692 121.933 331.946 121.32C332.212 120.693 332.479 120.08 332.746 119.48C333.026 118.88 333.319 118.293 333.626 117.72C333.706 117.56 333.806 117.447 333.926 117.38C334.059 117.3 334.192 117.26 334.326 117.26C334.486 117.26 334.639 117.3 334.786 117.38C334.946 117.46 335.072 117.567 335.166 117.7C335.272 117.82 335.326 117.96 335.326 118.12C335.326 118.187 335.312 118.267 335.286 118.36C335.259 118.453 335.192 118.587 335.086 118.76C334.926 119.053 334.706 119.507 334.426 120.12C334.146 120.72 333.832 121.4 333.486 122.16C333.152 122.92 332.819 123.68 332.486 124.44C332.166 125.2 331.872 125.887 331.606 126.5C331.352 127.1 331.166 127.547 331.046 127.84C330.992 127.987 330.886 128.093 330.726 128.16C330.579 128.24 330.412 128.28 330.226 128.28C330.012 128.28 329.812 128.22 329.626 128.1C329.452 127.993 329.332 127.833 329.266 127.62C329.052 126.833 328.812 126.053 328.546 125.28C328.279 124.507 327.999 123.733 327.706 122.96C327.412 122.187 327.119 121.42 326.826 120.66C326.546 119.887 326.272 119.113 326.006 118.34ZM336.289 123.12C336.289 122.467 336.382 121.793 336.569 121.1C336.756 120.407 337.042 119.767 337.429 119.18C337.829 118.58 338.349 118.1 338.989 117.74C339.642 117.367 340.429 117.18 341.349 117.18C341.896 117.18 342.416 117.273 342.909 117.46C343.402 117.633 343.802 117.913 344.109 118.3C344.416 118.673 344.569 119.153 344.569 119.74C344.569 120.42 344.362 121.02 343.949 121.54C343.536 122.06 343.002 122.507 342.349 122.88C341.696 123.24 341.002 123.533 340.269 123.76C339.536 123.973 338.856 124.12 338.229 124.2C338.322 124.973 338.582 125.56 339.009 125.96C339.449 126.36 340.022 126.56 340.729 126.56C341.436 126.56 342.076 126.413 342.649 126.12C343.236 125.813 343.776 125.393 344.269 124.86C344.349 124.78 344.436 124.72 344.529 124.68C344.636 124.64 344.736 124.62 344.829 124.62C344.989 124.62 345.129 124.653 345.249 124.72C345.382 124.773 345.489 124.86 345.569 124.98C345.649 125.1 345.689 125.24 345.689 125.4C345.689 125.493 345.662 125.6 345.609 125.72C345.556 125.84 345.496 125.947 345.429 126.04C345.082 126.52 344.636 126.927 344.089 127.26C343.542 127.58 342.962 127.82 342.349 127.98C341.749 128.14 341.176 128.22 340.629 128.22C339.602 128.22 338.769 127.98 338.129 127.5C337.489 127.007 337.022 126.373 336.729 125.6C336.436 124.813 336.289 123.987 336.289 123.12ZM338.149 122.62C339.029 122.473 339.816 122.247 340.509 121.94C341.202 121.633 341.749 121.287 342.149 120.9C342.562 120.513 342.769 120.14 342.769 119.78C342.769 119.54 342.656 119.32 342.429 119.12C342.202 118.92 341.829 118.82 341.309 118.82C340.829 118.82 340.362 118.933 339.909 119.16C339.456 119.387 339.069 119.773 338.749 120.32C338.442 120.867 338.242 121.633 338.149 122.62ZM357.476 122.44C357.223 122.453 357.016 122.387 356.856 122.24C356.696 122.08 356.616 121.86 356.616 121.58C356.616 121.327 356.703 121.113 356.876 120.94C357.049 120.767 357.249 120.68 357.476 120.68C357.703 120.667 358.043 120.653 358.496 120.64C358.949 120.627 359.429 120.62 359.936 120.62C360.443 120.607 360.903 120.6 361.316 120.6C361.743 120.6 362.036 120.607 362.196 120.62C362.463 120.633 362.663 120.713 362.796 120.86C362.943 120.993 363.016 121.173 363.016 121.4C363.016 121.64 362.943 121.867 362.796 122.08C362.663 122.293 362.463 122.393 362.196 122.38C362.036 122.367 361.743 122.36 361.316 122.36C360.903 122.36 360.443 122.367 359.936 122.38C359.429 122.38 358.949 122.387 358.496 122.4C358.043 122.4 357.703 122.413 357.476 122.44Z" fill="#231F20"/>
<defs>
<clipPath id="clip0_153_597">
<rect width="121" height="121" fill="white"/>
</clipPath>
</defs>
</svg>
