<?xml version="1.0" encoding="UTF-8"?>
<svg xmlns="http://www.w3.org/2000/svg" xmlns:xlink="http://www.w3.org/1999/xlink" width="1200px" height="630px" viewBox="0 0 1200 630" version="1.1">
<defs>
<clipPath id="clip1">
  <path d="M 0 0 L 363 0 L 363 564.667969 L 0 564.667969 Z M 0 0 "/>
</clipPath>
</defs>
<g id="surface1">
<g clip-path="url(#clip1)" clip-rule="nonzero">
<path style=" stroke:none;fill-rule:nonzero;fill:rgb(100%,100%,100%);fill-opacity:1;" d="M 181.792969 564.667969 C 281.871094 564.667969 363 438.261719 363 282.332031 C 363 126.40625 281.871094 0 181.792969 0 C 81.71875 0 0.589844 126.40625 0.589844 282.332031 C 0.589844 438.261719 81.71875 564.667969 181.792969 564.667969 Z M 181.792969 564.667969 "/>
<path style="fill:none;stroke-width:2;stroke-linecap:butt;stroke-linejoin:miter;stroke:rgb(0%,71.764708%,86.274511%);stroke-opacity:1;stroke-miterlimit:4;" d="M 60.597656 119.137835 C 92.93099 119.137835 119.140625 92.885324 119.140625 60.499721 C 119.140625 28.114955 92.93099 1.861607 60.597656 1.861607 C 28.265625 1.861607 2.054688 28.114955 2.054688 60.499721 C 2.054688 92.885324 28.265625 119.137835 60.597656 119.137835 Z M 60.597656 119.137835 " transform="matrix(3,0,0,4.666667,0,0)"/>
</g>
<path style=" stroke:none;fill-rule:nonzero;fill:rgb(100%,100%,100%);fill-opacity:1;" d="M 89.816406 165.054688 L 0 165.054688 L 0 392.929688 L 89.816406 392.929688 Z M 89.816406 165.054688 "/>
<path style=" stroke:none;fill-rule:nonzero;fill:rgb(100%,100%,100%);fill-opacity:1;" d="M 184.582031 512.542969 C 267.722656 512.542969 335.125 407.53125 335.125 277.988281 C 335.125 148.449219 267.722656 43.4375 184.582031 43.4375 C 101.441406 43.4375 34.042969 148.449219 34.042969 277.988281 C 34.042969 407.53125 101.441406 512.542969 184.582031 512.542969 Z M 184.582031 512.542969 "/>
<path style=" stroke:none;fill-rule:nonzero;fill:rgb(0%,71.764708%,86.274511%);fill-opacity:1;" d="M 182.996094 509.9375 C 167.292969 509.964844 151.691406 506.132812 136.757812 498.601562 C 136.902344 496.480469 137.085938 494.308594 137.3125 492.148438 C 138.1875 485.683594 140.429688 479.875 143.6875 475.640625 C 147.253906 470.585938 151.882812 467.714844 156.707031 467.578125 C 157.261719 467.578125 157.820312 467.578125 158.378906 467.699219 C 162.789062 468.359375 170.53125 469.066406 179.035156 469.066406 C 188.671875 469.835938 198.316406 468.019531 207.554688 463.710938 C 215.699219 457.910156 219.351562 442.984375 215.746094 430.207031 C 213.605469 422.890625 214.625 414.28125 218.304688 408.644531 C 220.9375 404.925781 222.582031 399.808594 222.914062 394.292969 C 222.914062 388.769531 218.863281 384.433594 218.824219 384.390625 C 221.542969 384.035156 224.089844 382.167969 226 379.125 C 226.789062 377.648438 227.109375 375.6875 226.867188 373.800781 C 226.058594 369.117188 224.085938 365.140625 221.386719 362.722656 C 219.757812 361.066406 218.675781 358.382812 218.433594 355.375 C 218.046875 350.09375 219.125 344.800781 221.386719 340.832031 C 224.019531 336.800781 227.609375 334.648438 231.292969 334.890625 C 236.390625 335.566406 241.226562 331.234375 243.417969 324.03125 C 246.097656 314.832031 232.628906 284.9375 222.785156 263.109375 C 221.542969 260.347656 220.378906 257.765625 219.328125 255.402344 C 213.195312 241.574219 213.195312 241.25 213.195312 224.128906 C 213.195312 215.632812 213.195312 202.785156 212.425781 182.03125 C 209.027344 120.875 182.085938 69.089844 144.382812 51.253906 C 216.542969 21.351562 291.816406 78.773438 320.921875 185.90625 C 344.65625 273.359375 331.972656 374.503906 288.84375 441.585938 C 260.804688 485.414062 222.707031 510.007812 182.996094 509.9375 Z M 182.996094 509.9375 "/>
<path style=" stroke:none;fill-rule:nonzero;fill:rgb(0%,71.764708%,86.274511%);fill-opacity:1;" d="M 83.632812 165.054688 L 16.726562 165.054688 L 16.726562 182.429688 L 83.632812 182.429688 Z M 83.632812 165.054688 "/>
<path style=" stroke:none;fill-rule:nonzero;fill:rgb(0%,71.764708%,86.274511%);fill-opacity:1;" d="M 94.785156 199.804688 C 104.019531 199.804688 111.511719 188.136719 111.511719 173.742188 C 111.511719 159.351562 104.019531 147.683594 94.785156 147.683594 C 85.546875 147.683594 78.058594 159.351562 78.058594 173.742188 C 78.058594 188.136719 85.546875 199.804688 94.785156 199.804688 Z M 94.785156 199.804688 "/>
<path style=" stroke:none;fill-rule:nonzero;fill:rgb(0%,71.764708%,86.274511%);fill-opacity:1;" d="M 94.785156 304.050781 C 104.019531 304.050781 111.511719 292.382812 111.511719 277.988281 C 111.511719 263.597656 104.019531 251.929688 94.785156 251.929688 C 85.546875 251.929688 78.058594 263.597656 78.058594 277.988281 C 78.058594 292.382812 85.546875 304.050781 94.785156 304.050781 Z M 94.785156 304.050781 "/>
<path style=" stroke:none;fill-rule:nonzero;fill:rgb(0%,71.764708%,86.274511%);fill-opacity:1;" d="M 94.785156 416.984375 C 104.019531 416.984375 111.511719 405.316406 111.511719 390.921875 C 111.511719 376.53125 104.019531 364.863281 94.785156 364.863281 C 85.546875 364.863281 78.058594 376.53125 78.058594 390.921875 C 78.058594 405.316406 85.546875 416.984375 94.785156 416.984375 Z M 94.785156 416.984375 "/>
<path style=" stroke:none;fill-rule:nonzero;fill:rgb(0%,71.764708%,86.274511%);fill-opacity:1;" d="M 83.632812 269.300781 L 16.726562 269.300781 L 16.726562 286.675781 L 83.632812 286.675781 Z M 83.632812 269.300781 "/>
<path style=" stroke:none;fill-rule:nonzero;fill:rgb(0%,71.764708%,86.274511%);fill-opacity:1;" d="M 83.632812 382.234375 L 16.726562 382.234375 L 16.726562 399.609375 L 83.632812 399.609375 Z M 83.632812 382.234375 "/>
<path style=" stroke:none;fill-rule:nonzero;fill:rgb(100%,100%,100%);fill-opacity:1;" d="M 16.726562 382.234375 L 11.152344 382.234375 L 11.152344 399.609375 L 16.726562 399.609375 Z M 16.726562 382.234375 "/>
<path style=" stroke:none;fill-rule:nonzero;fill:rgb(13.725491%,12.156863%,12.54902%);fill-opacity:1;" d="M 501.527344 47.816406 L 484.546875 71.167969 C 478.585938 58.234375 472.515625 51.769531 466.335938 51.769531 C 463.328125 51.769531 460.867188 53.046875 458.953125 55.597656 C 457.039062 58.066406 456.082031 60.875 456.082031 64.019531 C 456.082031 67.167969 456.765625 70.144531 458.132812 72.953125 C 459.992188 76.695312 465.597656 84.734375 474.949219 97.070312 C 483.699219 108.46875 489.003906 115.65625 490.863281 118.636719 C 495.511719 125.953125 498.792969 132.96875 500.707031 139.691406 C 502.675781 146.324219 503.660156 153.597656 503.660156 161.511719 C 503.660156 176.90625 500.242188 189.625 493.40625 199.664062 C 486.570312 209.703125 477.65625 214.722656 466.664062 214.722656 C 458.078125 214.722656 450.585938 211.445312 444.1875 204.894531 C 437.84375 198.34375 432.402344 188.050781 427.863281 174.015625 L 447.140625 155.894531 C 452.9375 172.484375 459.609375 180.777344 467.15625 180.777344 C 471.09375 180.777344 474.402344 178.992188 477.082031 175.417969 C 479.761719 171.847656 481.101562 167.71875 481.101562 163.042969 C 481.101562 158.789062 480.089844 154.535156 478.066406 150.28125 C 476.042969 146.027344 471.585938 139.519531 464.695312 130.757812 C 451.570312 114.085938 443.09375 101.238281 439.265625 92.222656 C 435.4375 83.117188 433.523438 74.058594 433.523438 65.042969 C 433.523438 52.027344 436.695312 40.882812 443.039062 31.609375 C 449.4375 22.25 457.3125 17.574219 466.664062 17.574219 C 472.679688 17.574219 478.394531 19.742188 483.808594 24.082031 C 489.277344 28.417969 495.183594 36.332031 501.527344 47.816406 Z M 565.183594 67.59375 C 573.605469 67.59375 581.507812 70.867188 588.890625 77.417969 C 596.328125 83.96875 602.125 92.859375 606.28125 104.089844 C 610.4375 115.316406 612.515625 127.441406 612.515625 140.457031 C 612.515625 153.554688 610.410156 165.804688 606.199219 177.207031 C 602.042969 188.605469 596.355469 197.539062 589.136719 204.003906 C 581.917969 210.382812 573.960938 213.574219 565.265625 213.574219 C 552.46875 213.574219 541.53125 206.511719 532.453125 192.390625 C 523.429688 178.183594 518.917969 160.957031 518.917969 140.710938 C 518.917969 119.019531 524.03125 100.941406 534.257812 86.480469 C 543.226562 73.890625 553.535156 67.59375 565.183594 67.59375 Z M 565.511719 100.386719 C 558.566406 100.386719 552.769531 104.171875 548.121094 111.746094 C 543.527344 119.230469 541.230469 128.84375 541.230469 140.582031 C 541.230469 152.664062 543.5 162.445312 548.039062 169.933594 C 552.632812 177.417969 558.429688 181.160156 565.429688 181.160156 C 572.429688 181.160156 578.253906 177.375 582.902344 169.804688 C 587.550781 162.234375 589.875 152.492188 589.875 140.582031 C 589.875 128.671875 587.578125 119.019531 582.984375 111.617188 C 578.445312 104.132812 572.621094 100.386719 565.511719 100.386719 Z M 620.226562 71.167969 L 628.183594 71.167969 C 628.238281 52.960938 628.429688 42.199219 628.757812 38.882812 C 629.359375 31.226562 631.410156 25.1875 634.910156 20.761719 C 638.464844 16.253906 643.46875 14 649.921875 14 C 654.570312 14 659.820312 15.660156 665.671875 18.976562 L 665.671875 45.519531 C 662.445312 44.070312 659.792969 43.347656 657.714844 43.347656 C 655.089844 43.347656 653.175781 44.199219 651.972656 45.902344 C 651.097656 47.175781 650.660156 49.8125 650.660156 53.8125 L 650.578125 71.167969 L 664.769531 71.167969 L 664.769531 100.769531 L 650.578125 100.769531 L 650.578125 210 L 628.183594 210 L 628.183594 100.769531 L 620.226562 100.769531 Z M 680.683594 19.996094 L 702.996094 19.996094 L 702.996094 71.167969 L 716.285156 71.167969 L 716.285156 101.152344 L 702.996094 101.152344 L 702.996094 210 L 680.683594 210 L 680.683594 101.152344 L 669.199219 101.152344 L 669.199219 71.167969 L 680.683594 71.167969 Z M 718.417969 71.167969 L 740.320312 71.167969 L 758.285156 150.152344 L 777.644531 71.167969 L 791.015625 71.167969 L 809.964844 149.261719 L 827.929688 71.167969 L 849.996094 71.167969 L 817.429688 210 L 803.238281 210 L 784.207031 130.886719 L 764.601562 210 L 750.574219 210 Z M 904.628906 67.59375 C 913.050781 67.59375 920.953125 70.867188 928.335938 77.417969 C 935.773438 83.96875 941.570312 92.859375 945.726562 104.089844 C 949.882812 115.316406 951.960938 127.441406 951.960938 140.457031 C 951.960938 153.554688 949.855469 165.804688 945.644531 177.207031 C 941.488281 188.605469 935.800781 197.539062 928.582031 204.003906 C 921.363281 210.382812 913.40625 213.574219 904.710938 213.574219 C 891.914062 213.574219 880.976562 206.511719 871.898438 192.390625 C 862.875 178.183594 858.363281 160.957031 858.363281 140.710938 C 858.363281 119.019531 863.476562 100.941406 873.703125 86.480469 C 882.671875 73.890625 892.980469 67.59375 904.628906 67.59375 Z M 904.957031 100.386719 C 898.011719 100.386719 892.214844 104.171875 887.566406 111.746094 C 882.972656 119.230469 880.675781 128.84375 880.675781 140.582031 C 880.675781 152.664062 882.945312 162.445312 887.484375 169.933594 C 892.078125 177.417969 897.875 181.160156 904.875 181.160156 C 911.875 181.160156 917.699219 177.375 922.347656 169.804688 C 926.996094 162.234375 929.320312 152.492188 929.320312 140.582031 C 929.320312 128.671875 927.023438 119.019531 922.429688 111.617188 C 917.890625 104.132812 912.066406 100.386719 904.957031 100.386719 Z M 965.085938 71.167969 L 984.28125 71.167969 L 984.28125 88.648438 C 986.359375 81.757812 989.121094 76.527344 992.566406 72.953125 C 996.011719 69.378906 999.785156 67.59375 1003.886719 67.59375 C 1006.785156 67.59375 1009.820312 68.785156 1012.992188 71.167969 L 1006.019531 101.152344 C 1003.394531 99.113281 1001.234375 98.089844 999.539062 98.089844 C 996.09375 98.089844 993.167969 101.410156 990.761719 108.042969 C 988.410156 114.679688 987.234375 127.695312 987.234375 147.089844 L 987.316406 153.855469 L 987.316406 210 L 965.085938 210 Z M 1024.3125 17.574219 L 1046.707031 17.574219 L 1046.707031 128.460938 L 1079.683594 71.167969 L 1107.738281 71.167969 L 1069.347656 137.777344 L 1112.414062 210 L 1084.605469 210 L 1046.707031 146.070312 L 1046.707031 210 L 1024.3125 210 Z M 1176.234375 90.5625 L 1162.371094 112.128906 C 1156.738281 103.449219 1151.625 99.113281 1147.03125 99.113281 C 1144.515625 99.113281 1142.546875 99.960938 1141.125 101.664062 C 1139.703125 103.28125 1138.992188 105.320312 1138.992188 107.789062 C 1138.992188 109.660156 1139.429688 111.40625 1140.304688 113.019531 C 1141.234375 114.550781 1143.476562 116.679688 1147.03125 119.402344 L 1155.234375 125.78125 C 1163.875 132.417969 1169.808594 139.179688 1173.035156 146.070312 C 1176.261719 152.960938 1177.875 161.042969 1177.875 170.316406 C 1177.875 182.648438 1174.949219 192.945312 1169.097656 201.195312 C 1163.300781 209.445312 1155.507812 213.574219 1145.71875 213.574219 C 1132.703125 213.574219 1122.3125 205.660156 1114.546875 189.839844 L 1128.328125 166.488281 C 1130.953125 171.25 1134.015625 175.121094 1137.515625 178.097656 C 1141.070312 180.992188 1144.214844 182.4375 1146.949219 182.4375 C 1149.902344 182.4375 1152.28125 181.332031 1154.085938 179.121094 C 1155.890625 176.90625 1156.792969 174.355469 1156.792969 171.464844 C 1156.792969 166.105469 1153.539062 160.871094 1147.03125 155.769531 L 1139.484375 149.898438 C 1125.046875 138.585938 1117.828125 124.421875 1117.828125 107.40625 C 1117.828125 96.433594 1120.535156 87.074219 1125.949219 79.332031 C 1131.417969 71.507812 1138.390625 67.59375 1146.867188 67.59375 C 1152.664062 67.59375 1158.105469 69.59375 1163.191406 73.589844 C 1168.332031 77.503906 1172.679688 83.160156 1176.234375 90.5625 Z M 1176.234375 90.5625 "/>
<path style=" stroke:none;fill-rule:nonzero;fill:rgb(13.725491%,12.156863%,12.54902%);fill-opacity:1;" d="M 412.835938 300.34375 L 412.835938 287.960938 L 457.757812 287.960938 L 457.757812 300.34375 L 439.5 300.34375 L 439.5 415.332031 L 431.152344 415.332031 L 431.152344 300.34375 Z M 524.910156 384.074219 L 531.480469 389.441406 C 529.324219 396.023438 526.84375 401.335938 524.019531 405.375 C 521.199219 409.417969 518.027344 412.503906 514.503906 414.640625 C 510.976562 416.71875 506.988281 417.757812 502.53125 417.757812 C 492.664062 417.757812 484.945312 412.734375 479.378906 402.691406 C 473.8125 392.589844 471.027344 381.1875 471.027344 368.488281 C 471.027344 356.539062 473.386719 345.890625 478.097656 336.539062 C 484.070312 324.644531 492.070312 318.699219 502.089844 318.699219 C 512.40625 318.699219 520.644531 324.789062 526.804688 336.96875 C 531.183594 345.570312 533.410156 356.308594 533.484375 369.183594 L 479.042969 369.183594 C 479.191406 380.148438 481.4375 389.15625 485.777344 396.195312 C 490.121094 403.183594 495.484375 406.675781 501.867188 406.675781 C 504.945312 406.675781 507.933594 405.835938 510.828125 404.164062 C 513.757812 402.488281 516.246094 400.265625 518.285156 397.496094 C 520.328125 394.726562 522.535156 390.25 524.910156 384.074219 Z M 524.910156 358.703125 C 523.871094 352.238281 522.351562 347.074219 520.347656 343.203125 C 518.378906 339.335938 515.761719 336.21875 512.5 333.851562 C 509.230469 331.488281 505.800781 330.304688 502.199219 330.304688 C 496.261719 330.304688 491.160156 333.277344 486.890625 339.222656 C 483.773438 343.550781 481.417969 350.046875 479.824219 358.703125 Z M 612.550781 340.695312 L 606.367188 346.667969 C 601.027344 335.644531 593.734375 330.128906 584.492188 330.128906 C 577.109375 330.128906 570.964844 333.824219 566.070312 341.214844 C 561.207031 348.601562 558.777344 357.578125 558.777344 368.144531 C 558.777344 375.011719 559.890625 381.476562 562.117188 387.539062 C 564.382812 393.601562 567.460938 398.304688 571.355469 401.652344 C 575.292969 405 579.6875 406.675781 584.550781 406.675781 C 593.457031 406.675781 600.730469 401.160156 606.367188 390.136719 L 612.550781 396.457031 C 609.652344 403.210938 605.757812 408.464844 600.859375 412.214844 C 595.996094 415.910156 590.449219 417.757812 584.214844 417.757812 C 574.640625 417.757812 566.699219 413.023438 560.390625 403.558594 C 554.082031 394.089844 550.929688 382.574219 550.929688 369.007812 C 550.929688 359.886719 552.394531 351.429688 555.328125 343.636719 C 558.292969 335.789062 562.359375 329.667969 567.515625 325.28125 C 572.671875 320.894531 578.445312 318.699219 584.828125 318.699219 C 588.835938 318.699219 592.695312 319.652344 596.40625 321.558594 C 600.152344 323.464844 603.328125 325.945312 605.925781 329.003906 C 608.523438 332.0625 610.730469 335.960938 612.550781 340.695312 Z M 633.277344 284.757812 L 641.070312 284.757812 L 641.070312 338.011719 C 644.226562 331.542969 647.695312 326.722656 651.480469 323.550781 C 655.265625 320.316406 659.367188 318.699219 663.78125 318.699219 C 668.308594 318.699219 672.316406 320.488281 675.804688 324.070312 C 679.328125 327.648438 681.925781 332.46875 683.597656 338.53125 C 685.269531 344.53125 686.101562 353.972656 686.101562 366.84375 L 686.101562 415.332031 L 678.308594 415.332031 L 678.308594 370.394531 C 678.308594 359.542969 678.03125 352.296875 677.476562 348.660156 C 676.507812 342.425781 674.746094 337.75 672.1875 334.632812 C 669.664062 331.457031 666.34375 329.871094 662.222656 329.871094 C 657.511719 329.871094 653.28125 332.296875 649.53125 337.144531 C 645.820312 341.992188 643.371094 347.996094 642.183594 355.15625 C 641.441406 359.773438 641.070312 368.316406 641.070312 380.785156 L 641.070312 415.332031 L 633.277344 415.332031 Z M 708.558594 321.125 L 716.351562 321.125 L 716.351562 338.011719 C 719.46875 331.542969 722.917969 326.722656 726.703125 323.550781 C 730.488281 320.316406 734.609375 318.699219 739.0625 318.699219 C 743.589844 318.699219 747.597656 320.488281 751.085938 324.070312 C 754.609375 327.648438 757.210938 332.46875 758.878906 338.53125 C 760.546875 344.589844 761.382812 354.027344 761.382812 366.84375 L 761.382812 415.332031 L 753.644531 415.332031 L 753.644531 370.394531 C 753.644531 359.542969 753.347656 352.296875 752.753906 348.660156 C 751.828125 342.425781 750.085938 337.75 747.523438 334.632812 C 744.964844 331.457031 741.621094 329.871094 737.503906 329.871094 C 732.789062 329.871094 728.558594 332.296875 724.8125 337.144531 C 721.101562 341.992188 718.652344 347.996094 717.464844 355.15625 C 716.722656 359.828125 716.351562 368.375 716.351562 380.785156 L 716.351562 415.332031 L 708.558594 415.332031 Z M 812.503906 318.699219 C 821.820312 318.699219 829.539062 323.953125 835.660156 334.460938 C 841.226562 344.042969 844.011719 355.386719 844.011719 368.488281 C 844.011719 381.648438 841.0625 393.167969 835.160156 403.039062 C 829.296875 412.851562 821.746094 417.757812 812.503906 417.757812 C 803.230469 417.757812 795.640625 412.851562 789.738281 403.039062 C 783.875 393.167969 780.941406 381.648438 780.941406 368.488281 C 780.941406 355.441406 783.726562 344.128906 789.292969 334.546875 C 795.417969 323.980469 803.152344 318.699219 812.503906 318.699219 Z M 812.503906 330.5625 C 806.050781 330.5625 800.5 334.285156 795.859375 341.734375 C 791.222656 349.179688 788.902344 358.183594 788.902344 368.75 C 788.902344 375.558594 789.960938 381.910156 792.074219 387.796875 C 794.191406 393.6875 797.050781 398.246094 800.648438 401.480469 C 804.25 404.652344 808.199219 406.242188 812.503906 406.242188 C 816.808594 406.242188 820.761719 404.652344 824.359375 401.480469 C 827.960938 398.246094 830.816406 393.6875 832.933594 387.796875 C 835.050781 381.910156 836.105469 375.558594 836.105469 368.75 C 836.105469 358.183594 833.769531 349.179688 829.09375 341.734375 C 824.453125 334.285156 818.925781 330.5625 812.503906 330.5625 Z M 863.070312 284.757812 L 870.863281 284.757812 L 870.863281 415.332031 L 863.070312 415.332031 Z M 921.429688 318.699219 C 930.742188 318.699219 938.464844 323.953125 944.585938 334.460938 C 950.152344 344.042969 952.933594 355.386719 952.933594 368.488281 C 952.933594 381.648438 949.984375 393.167969 944.085938 403.039062 C 938.21875 412.851562 930.667969 417.757812 921.429688 417.757812 C 912.148438 417.757812 904.5625 412.851562 898.660156 403.039062 C 892.796875 393.167969 889.867188 381.648438 889.867188 368.488281 C 889.867188 355.441406 892.648438 344.128906 898.214844 334.546875 C 904.339844 323.980469 912.078125 318.699219 921.429688 318.699219 Z M 921.429688 330.5625 C 914.96875 330.5625 909.421875 334.285156 904.785156 341.734375 C 900.148438 349.179688 897.828125 358.183594 897.828125 368.75 C 897.828125 375.558594 898.882812 381.910156 901 387.796875 C 903.113281 393.6875 905.972656 398.246094 909.574219 401.480469 C 913.171875 404.652344 917.125 406.242188 921.429688 406.242188 C 925.734375 406.242188 929.683594 404.652344 933.285156 401.480469 C 936.886719 398.246094 939.742188 393.6875 941.855469 387.796875 C 943.972656 381.910156 945.03125 375.558594 945.03125 368.75 C 945.03125 358.183594 942.691406 349.179688 938.015625 341.734375 C 933.378906 334.285156 927.847656 330.5625 921.429688 330.5625 Z M 1025.320312 321.125 L 1033.167969 321.125 L 1033.167969 396.195312 C 1033.167969 409.417969 1032.425781 419.085938 1030.941406 425.203125 C 1028.902344 433.863281 1025.359375 440.53125 1020.308594 445.207031 C 1015.261719 449.882812 1009.195312 452.21875 1002.109375 452.21875 C 996.910156 452.21875 992.238281 451.066406 988.078125 448.757812 C 983.960938 446.503906 980.605469 443.445312 978.007812 439.578125 C 975.40625 435.769531 973.015625 430.167969 970.824219 422.78125 L 979.285156 422.78125 C 981.585938 429.015625 984.554688 433.632812 988.191406 436.632812 C 991.828125 439.636719 996.335938 441.136719 1001.71875 441.136719 C 1007.023438 441.136719 1011.496094 439.578125 1015.132812 436.460938 C 1018.804688 433.402344 1021.421875 429.535156 1022.980469 424.859375 C 1024.539062 420.183594 1025.320312 412.648438 1025.320312 402.257812 L 1025.320312 397.410156 C 1022.386719 403.183594 1018.804688 407.625 1014.574219 410.742188 C 1010.347656 413.804688 1005.855469 415.332031 1001.105469 415.332031 C 995.539062 415.332031 990.304688 413.199219 985.410156 408.925781 C 980.511719 404.597656 976.726562 398.796875 974.050781 391.523438 C 971.382812 384.25 970.042969 376.253906 970.042969 367.535156 C 970.042969 358.820312 971.4375 350.710938 974.21875 343.203125 C 977.003906 335.644531 980.84375 329.667969 985.742188 325.28125 C 990.679688 320.894531 995.875 318.699219 1001.328125 318.699219 C 1005.855469 318.699219 1010.066406 320.171875 1013.964844 323.117188 C 1017.898438 326.003906 1021.683594 330.792969 1025.320312 337.488281 Z M 1002.328125 330.390625 C 997.914062 330.390625 993.8125 332.0625 990.03125 335.410156 C 986.242188 338.703125 983.273438 343.292969 981.121094 349.179688 C 978.96875 355.011719 977.894531 361.332031 977.894531 368.144531 C 977.894531 378.476562 980.121094 387.019531 984.574219 393.773438 C 989.027344 400.527344 994.796875 403.902344 1001.886719 403.902344 C 1009.046875 403.902344 1014.796875 400.554688 1019.140625 393.859375 C 1023.519531 387.164062 1025.710938 378.359375 1025.710938 367.449219 C 1025.710938 360.351562 1024.707031 354.027344 1022.703125 348.488281 C 1020.699219 342.886719 1017.859375 338.472656 1014.1875 335.238281 C 1010.515625 332.007812 1006.558594 330.390625 1002.328125 330.390625 Z M 1058.296875 282.332031 C 1060.078125 282.332031 1061.597656 283.316406 1062.859375 285.277344 C 1064.121094 287.238281 1064.75 289.605469 1064.75 292.378906 C 1064.75 295.089844 1064.121094 297.429688 1062.859375 299.390625 C 1061.597656 301.355469 1060.078125 302.335938 1058.296875 302.335938 C 1056.550781 302.335938 1055.050781 301.355469 1053.785156 299.390625 C 1052.527344 297.429688 1051.894531 295.089844 1051.894531 292.378906 C 1051.894531 289.605469 1052.527344 287.238281 1053.785156 285.277344 C 1055.050781 283.316406 1056.550781 282.332031 1058.296875 282.332031 Z M 1054.398438 321.125 L 1062.246094 321.125 L 1062.246094 415.332031 L 1054.398438 415.332031 Z M 1135.078125 384.074219 L 1141.648438 389.441406 C 1139.492188 396.023438 1137.007812 401.335938 1134.1875 405.375 C 1131.367188 409.417969 1128.195312 412.503906 1124.671875 414.640625 C 1121.144531 416.71875 1117.15625 417.757812 1112.699219 417.757812 C 1102.828125 417.757812 1095.109375 412.734375 1089.546875 402.691406 C 1083.976562 392.589844 1081.195312 381.1875 1081.195312 368.488281 C 1081.195312 356.539062 1083.550781 345.890625 1088.265625 336.539062 C 1094.238281 324.644531 1102.234375 318.699219 1112.257812 318.699219 C 1122.574219 318.699219 1130.8125 324.789062 1136.96875 336.96875 C 1141.351562 345.570312 1143.574219 356.308594 1143.652344 369.183594 L 1089.210938 369.183594 C 1089.359375 380.148438 1091.605469 389.15625 1095.945312 396.195312 C 1100.289062 403.183594 1105.648438 406.675781 1112.035156 406.675781 C 1115.113281 406.675781 1118.101562 405.835938 1120.996094 404.164062 C 1123.925781 402.488281 1126.414062 400.265625 1128.453125 397.496094 C 1130.496094 394.726562 1132.703125 390.25 1135.078125 384.074219 Z M 1135.078125 358.703125 C 1134.039062 352.238281 1132.519531 347.074219 1130.515625 343.203125 C 1128.546875 339.335938 1125.929688 336.21875 1122.664062 333.851562 C 1119.398438 331.488281 1115.96875 330.304688 1112.367188 330.304688 C 1106.429688 330.304688 1101.328125 333.277344 1097.0625 339.222656 C 1093.941406 343.550781 1091.585938 350.046875 1089.988281 358.703125 Z M 1194.382812 331.429688 L 1189.375 339.480469 C 1185.214844 333.191406 1181.152344 330.042969 1177.183594 330.042969 C 1174.660156 330.042969 1172.488281 331.34375 1170.667969 333.941406 C 1168.886719 336.539062 1168 339.566406 1168 343.03125 C 1168 346.089844 1168.738281 349.007812 1170.226562 351.777344 C 1171.710938 354.605469 1174.828125 357.925781 1179.574219 361.734375 C 1185.367188 366.410156 1189.300781 370.914062 1191.378906 375.242188 C 1193.417969 379.628906 1194.4375 384.566406 1194.4375 390.050781 C 1194.4375 397.785156 1192.695312 404.335938 1189.207031 409.703125 C 1185.71875 415.074219 1181.359375 417.757812 1176.125 417.757812 C 1172.636719 417.757812 1169.296875 416.574219 1166.105469 414.207031 C 1162.949219 411.839844 1160.335938 408.578125 1158.257812 404.421875 L 1163.152344 395.765625 C 1167.125 402.75 1171.339844 406.242188 1175.789062 406.242188 C 1178.90625 406.242188 1181.5625 404.683594 1183.753906 401.566406 C 1185.9375 398.449219 1187.035156 394.78125 1187.035156 390.570312 C 1187.035156 387.105469 1186.3125 384.015625 1184.863281 381.304688 C 1183.414062 378.648438 1180.152344 375.300781 1175.066406 371.261719 C 1169.613281 366.871094 1165.902344 362.542969 1163.933594 358.273438 C 1161.96875 354 1160.984375 349.121094 1160.984375 343.636719 C 1160.984375 336.480469 1162.542969 330.535156 1165.660156 325.800781 C 1168.816406 321.066406 1172.785156 318.699219 1177.570312 318.699219 C 1183.136719 318.699219 1188.742188 322.941406 1194.382812 331.429688 Z M 1194.382812 331.429688 "/>
<path style=" stroke:none;fill-rule:nonzero;fill:rgb(13.725491%,12.156863%,12.54902%);fill-opacity:1;" d="M 521.941406 571.386719 C 521.179688 571.449219 520.558594 571.140625 520.078125 570.453125 C 519.601562 569.707031 519.359375 568.679688 519.359375 567.375 C 519.359375 566.191406 519.621094 565.195312 520.140625 564.386719 C 520.660156 563.578125 521.257812 563.171875 521.941406 563.171875 C 522.621094 563.113281 523.640625 563.046875 525 562.988281 C 526.359375 562.925781 527.800781 562.894531 529.320312 562.894531 C 530.839844 562.832031 532.222656 562.800781 533.460938 562.800781 C 534.742188 562.800781 535.621094 562.832031 536.101562 562.894531 C 536.902344 562.953125 537.5 563.328125 537.898438 564.011719 C 538.339844 564.632812 538.558594 565.472656 538.558594 566.535156 C 538.558594 567.652344 538.339844 568.710938 537.898438 569.707031 C 537.5 570.699219 536.902344 571.167969 536.101562 571.105469 C 535.621094 571.046875 534.742188 571.011719 533.460938 571.011719 C 532.222656 571.011719 530.839844 571.046875 529.320312 571.105469 C 527.800781 571.105469 526.359375 571.140625 525 571.199219 C 523.640625 571.199219 522.621094 571.261719 521.941406 571.386719 Z M 573.15625 597.238281 C 572.71875 597.238281 572.296875 597.085938 571.894531 596.773438 C 571.496094 596.398438 571.15625 595.933594 570.875 595.375 C 570.636719 594.753906 570.515625 594.128906 570.515625 593.507812 C 570.515625 586.351562 570.558594 579.289062 570.636719 572.320312 C 570.71875 565.351562 570.816406 558.414062 570.9375 551.507812 C 571.097656 544.539062 571.277344 537.566406 571.476562 530.601562 C 571.519531 529.234375 571.816406 528.234375 572.375 527.613281 C 572.9375 526.925781 573.558594 526.585938 574.234375 526.585938 C 574.714844 526.585938 575.15625 526.742188 575.554688 527.054688 C 575.996094 527.300781 576.335938 527.738281 576.574219 528.359375 C 576.859375 528.921875 576.976562 529.667969 576.9375 530.601562 C 576.738281 537.566406 576.558594 544.539062 576.394531 551.507812 C 576.277344 558.414062 576.175781 565.351562 576.097656 572.320312 C 576.019531 579.289062 575.976562 586.351562 575.976562 593.507812 C 575.976562 594.007812 575.898438 594.472656 575.734375 594.90625 C 575.578125 595.339844 575.359375 595.746094 575.074219 596.121094 C 574.796875 596.433594 574.476562 596.710938 574.117188 596.960938 C 573.796875 597.148438 573.476562 597.238281 573.15625 597.238281 Z M 576.9375 599.945312 C 575.816406 599.945312 574.757812 599.886719 573.757812 599.761719 C 572.796875 599.699219 571.9375 599.539062 571.175781 599.292969 C 570.257812 598.980469 569.597656 598.484375 569.195312 597.800781 C 568.796875 597.113281 568.597656 596.273438 568.597656 595.28125 C 568.597656 594.21875 568.816406 593.320312 569.257812 592.574219 C 569.734375 591.828125 570.335938 591.484375 571.054688 591.546875 C 572.097656 591.671875 573.136719 591.792969 574.175781 591.921875 C 575.21875 591.980469 576.238281 592.011719 577.234375 592.011719 C 579.636719 592.011719 581.878906 591.699219 583.957031 591.078125 C 586.039062 590.394531 587.855469 589.367188 589.414062 588 C 590.976562 586.566406 592.195312 584.792969 593.074219 582.679688 C 593.957031 580.566406 594.394531 578.046875 594.394531 575.121094 C 594.394531 571.945312 593.617188 569.367188 592.054688 567.375 C 590.496094 565.378906 588.136719 564.386719 584.976562 564.386719 C 583.65625 564.386719 582.117188 564.605469 580.355469 565.039062 C 578.636719 565.472656 576.816406 566.007812 574.894531 566.625 C 574.339844 566.753906 573.796875 566.6875 573.277344 566.441406 C 572.757812 566.191406 572.335938 565.753906 572.015625 565.132812 C 571.699219 564.511719 571.535156 563.699219 571.535156 562.707031 C 571.535156 562.148438 571.617188 561.554688 571.777344 560.933594 C 571.976562 560.3125 572.257812 559.78125 572.617188 559.347656 C 573.019531 558.847656 573.535156 558.539062 574.175781 558.414062 C 579.257812 557.480469 583.339844 556.207031 586.414062 554.585938 C 589.496094 552.90625 591.71875 550.886719 593.074219 548.519531 C 594.476562 546.152344 595.175781 543.539062 595.175781 540.679688 C 595.175781 538.8125 594.738281 537.226562 593.855469 535.921875 C 593.015625 534.613281 591.816406 533.621094 590.257812 532.933594 C 588.738281 532.246094 586.9375 531.90625 584.855469 531.90625 C 583.054688 531.90625 581.097656 532.21875 578.976562 532.839844 C 576.859375 533.398438 574.796875 534.019531 572.796875 534.707031 C 571.917969 534.953125 571.136719 534.707031 570.457031 533.960938 C 569.816406 533.152344 569.496094 532.09375 569.496094 530.785156 C 569.496094 529.605469 569.855469 528.671875 570.574219 527.988281 C 571.296875 527.238281 572.074219 526.742188 572.914062 526.492188 C 574.917969 525.933594 576.9375 525.40625 578.976562 524.90625 C 581.015625 524.347656 583.039062 524.066406 585.035156 524.066406 C 587.71875 524.066406 590.238281 524.6875 592.597656 525.933594 C 594.996094 527.179688 596.9375 529.011719 598.414062 531.441406 C 599.9375 533.804688 600.695312 536.792969 600.695312 540.398438 C 600.695312 542.765625 600.355469 545.128906 599.675781 547.492188 C 599.035156 549.859375 598.054688 552.035156 596.734375 554.027344 C 595.414062 556.019531 593.757812 557.667969 591.757812 558.972656 C 593.398438 559.78125 594.816406 560.933594 596.015625 562.425781 C 597.257812 563.859375 598.21875 565.660156 598.894531 567.839844 C 599.617188 569.953125 599.976562 572.539062 599.976562 575.585938 C 599.976562 580.191406 599.277344 584.078125 597.875 587.253906 C 596.476562 590.367188 594.636719 592.851562 592.355469 594.71875 C 590.117188 596.585938 587.636719 597.925781 584.914062 598.734375 C 582.238281 599.539062 579.574219 599.945312 576.9375 599.945312 Z M 610.636719 579.785156 L 609.078125 573.160156 C 613.398438 572.226562 616.777344 570.980469 619.21875 569.425781 C 621.695312 567.871094 623.4375 566.21875 624.4375 564.480469 C 625.476562 562.675781 625.996094 560.992188 625.996094 559.441406 C 625.996094 557.699219 625.617188 556.394531 624.859375 555.519531 C 624.136719 554.585938 623.21875 554.121094 622.097656 554.121094 C 621.097656 554.121094 620.015625 554.527344 618.859375 555.332031 C 617.734375 556.078125 616.675781 557.234375 615.679688 558.785156 C 614.71875 560.339844 613.917969 562.273438 613.277344 564.574219 C 612.679688 566.875 612.378906 569.582031 612.378906 572.691406 C 612.378906 576.859375 612.835938 580.347656 613.757812 583.148438 C 614.675781 585.886719 615.859375 587.9375 617.296875 589.308594 C 618.777344 590.675781 620.316406 591.359375 621.917969 591.359375 C 623.195312 591.359375 624.417969 590.988281 625.578125 590.238281 C 626.734375 589.492188 627.796875 588.339844 628.757812 586.785156 C 629.195312 586.039062 629.65625 585.386719 630.136719 584.828125 C 630.617188 584.207031 631.136719 583.894531 631.699219 583.894531 C 632.179688 583.894531 632.578125 584.046875 632.898438 584.359375 C 633.257812 584.671875 633.515625 585.105469 633.679688 585.667969 C 633.875 586.164062 633.976562 586.753906 633.976562 587.441406 C 633.976562 588.0625 633.917969 588.621094 633.796875 589.121094 C 633.71875 589.621094 633.535156 590.113281 633.257812 590.613281 C 632.296875 592.480469 631.175781 594.066406 629.898438 595.375 C 628.65625 596.621094 627.335938 597.550781 625.9375 598.171875 C 624.574219 598.792969 623.195312 599.105469 621.796875 599.105469 C 619.878906 599.105469 618.019531 598.546875 616.21875 597.425781 C 614.457031 596.308594 612.859375 594.660156 611.417969 592.480469 C 610.015625 590.238281 608.898438 587.5 608.058594 584.265625 C 607.21875 580.96875 606.796875 577.207031 606.796875 572.972656 C 606.796875 568.554688 607.277344 564.726562 608.238281 561.492188 C 609.199219 558.195312 610.4375 555.460938 611.957031 553.28125 C 613.519531 551.039062 615.214844 549.394531 617.058594 548.332031 C 618.898438 547.214844 620.71875 546.652344 622.519531 546.652344 C 624.199219 546.652344 625.738281 547.121094 627.136719 548.054688 C 628.535156 548.988281 629.636719 550.386719 630.4375 552.253906 C 631.277344 554.121094 631.699219 556.453125 631.699219 559.253906 C 631.699219 561.179688 631.339844 563.207031 630.617188 565.320312 C 629.9375 567.375 628.777344 569.367188 627.136719 571.292969 C 625.535156 573.160156 623.375 574.839844 620.65625 576.332031 C 617.976562 577.828125 614.636719 578.980469 610.636719 579.785156 Z M 641.671875 550.851562 C 641.710938 549.546875 642.011719 548.582031 642.574219 547.960938 C 643.132812 547.339844 643.773438 547.027344 644.492188 547.027344 C 644.929688 547.027344 645.351562 547.179688 645.753906 547.492188 C 646.191406 547.742188 646.53125 548.148438 646.773438 548.707031 C 647.050781 549.265625 647.171875 549.980469 647.132812 550.851562 C 647.050781 553.21875 646.992188 555.800781 646.953125 558.601562 C 646.953125 561.398438 646.972656 564.261719 647.011719 567.1875 C 647.050781 570.113281 647.132812 572.972656 647.253906 575.773438 C 647.371094 578.574219 647.554688 581.152344 647.792969 583.519531 C 647.992188 585.820312 648.171875 587.8125 648.332031 589.492188 C 648.53125 591.171875 648.632812 592.539062 648.632812 593.601562 C 648.632812 594.847656 648.472656 595.902344 648.152344 596.773438 C 647.832031 597.582031 647.230469 597.988281 646.351562 597.988281 C 645.871094 597.988281 645.410156 597.859375 644.972656 597.613281 C 644.570312 597.367188 644.210938 596.742188 643.894531 595.746094 C 643.53125 594.625 643.210938 592.886719 642.933594 590.519531 C 642.652344 588.09375 642.394531 585.324219 642.152344 582.214844 C 641.953125 579.039062 641.792969 575.804688 641.671875 572.507812 C 641.59375 569.148438 641.554688 565.972656 641.554688 562.988281 C 641.554688 561.121094 641.554688 559.441406 641.554688 557.945312 C 641.59375 556.394531 641.613281 555.019531 641.613281 553.839844 C 641.652344 552.660156 641.671875 551.660156 641.671875 550.851562 Z M 640.894531 526.960938 C 640.894531 525.964844 641.074219 525.0625 641.433594 524.253906 C 641.832031 523.445312 642.351562 522.792969 642.992188 522.292969 C 643.632812 521.734375 644.292969 521.453125 644.972656 521.453125 C 645.53125 521.453125 646.152344 521.699219 646.832031 522.199219 C 647.511719 522.632812 648.09375 523.320312 648.574219 524.253906 C 649.09375 525.125 649.351562 526.214844 649.351562 527.519531 C 649.351562 528.453125 649.210938 529.355469 648.933594 530.226562 C 648.652344 531.035156 648.253906 531.6875 647.734375 532.1875 C 647.253906 532.6875 646.671875 532.933594 645.992188 532.933594 C 645.273438 532.933594 644.511719 532.6875 643.714844 532.1875 C 642.910156 531.6875 642.230469 531.007812 641.671875 530.132812 C 641.152344 529.199219 640.894531 528.140625 640.894531 526.960938 Z M 659.019531 549.078125 C 659.140625 548.273438 659.335938 547.648438 659.617188 547.214844 C 659.898438 546.78125 660.21875 546.464844 660.578125 546.28125 C 660.976562 546.09375 661.339844 546 661.660156 546 C 662.378906 546 662.996094 546.375 663.519531 547.121094 C 664.078125 547.804688 664.359375 548.675781 664.359375 549.734375 C 664.359375 550.046875 664.316406 550.699219 664.238281 551.691406 C 664.15625 552.625 664.078125 553.652344 664 554.773438 C 663.917969 555.894531 663.859375 556.953125 663.820312 557.945312 C 665.140625 554.398438 666.679688 551.539062 668.4375 549.359375 C 670.238281 547.179688 672.257812 546.09375 674.5 546.09375 C 677.9375 546.09375 680.515625 548.085938 682.238281 552.066406 C 683.957031 555.988281 684.820312 561.179688 684.820312 567.652344 C 684.820312 570.019531 684.738281 572.351562 684.578125 574.652344 C 684.417969 576.894531 684.21875 579.132812 683.980469 581.375 C 683.738281 583.550781 683.539062 585.726562 683.378906 587.90625 C 683.21875 590.019531 683.140625 592.105469 683.140625 594.160156 C 683.140625 595.527344 682.855469 596.527344 682.300781 597.148438 C 681.738281 597.765625 681.117188 598.078125 680.4375 598.078125 C 679.71875 598.078125 679.058594 597.765625 678.460938 597.148438 C 677.898438 596.527344 677.617188 595.558594 677.617188 594.253906 C 677.617188 591.953125 677.695312 589.742188 677.859375 587.625 C 678.019531 585.449219 678.21875 583.300781 678.460938 581.1875 C 678.699219 579.007812 678.898438 576.832031 679.058594 574.652344 C 679.21875 572.414062 679.300781 570.140625 679.300781 567.839844 C 679.300781 564.167969 679.039062 561.339844 678.519531 559.347656 C 677.996094 557.355469 677.320312 555.988281 676.480469 555.238281 C 675.640625 554.492188 674.695312 554.121094 673.660156 554.121094 C 672.378906 554.121094 671.15625 554.898438 670 556.453125 C 668.839844 558.007812 667.738281 560.1875 666.699219 562.988281 C 665.65625 565.785156 664.699219 569.019531 663.820312 572.691406 C 663.820312 577.359375 663.777344 581.40625 663.699219 584.828125 C 663.617188 588.1875 663.535156 591.234375 663.460938 593.972656 C 663.417969 595.152344 663.117188 596.121094 662.558594 596.867188 C 661.996094 597.550781 661.316406 597.894531 660.519531 597.894531 C 659.359375 597.894531 658.578125 597.113281 658.179688 595.558594 C 657.777344 594.007812 657.578125 592.199219 657.578125 590.148438 C 657.578125 588.59375 657.597656 587.035156 657.640625 585.480469 C 657.679688 583.859375 657.757812 582.246094 657.878906 580.625 C 658.039062 578.945312 658.21875 577.300781 658.417969 575.679688 C 658.378906 572.132812 658.359375 569.054688 658.359375 566.441406 C 658.359375 563.828125 658.378906 561.527344 658.417969 559.535156 C 658.457031 557.480469 658.519531 555.613281 658.597656 553.933594 C 658.71875 552.253906 658.855469 550.632812 659.019531 549.078125 Z M 691.519531 577.078125 C 691.519531 573.59375 691.898438 570.078125 692.65625 566.535156 C 693.421875 562.988281 694.480469 559.753906 695.839844 556.828125 C 697.238281 553.839844 698.917969 551.472656 700.878906 549.734375 C 702.839844 547.925781 705.019531 547.027344 707.417969 547.027344 C 708.21875 547.027344 709.039062 547.152344 709.878906 547.398438 C 710.71875 547.648438 711.558594 547.992188 712.398438 548.425781 L 712.636719 547.214844 C 712.800781 546.28125 713.117188 545.59375 713.597656 545.160156 C 714.121094 544.726562 714.660156 544.507812 715.21875 544.507812 C 715.859375 544.507812 716.417969 544.753906 716.898438 545.253906 C 717.378906 545.6875 717.699219 546.433594 717.859375 547.492188 C 718.097656 548.738281 718.277344 550.199219 718.398438 551.878906 C 718.519531 553.5 718.578125 555.207031 718.578125 557.011719 C 718.578125 559.753906 718.417969 562.644531 718.097656 565.691406 C 717.820312 568.742188 717.398438 571.761719 716.839844 574.746094 C 717 577.605469 717.21875 580.3125 717.496094 582.867188 C 717.820312 585.355469 718.097656 587.847656 718.339844 590.332031 C 718.621094 592.761719 718.757812 595.3125 718.757812 597.988281 C 718.757812 599.851562 718.597656 601.847656 718.277344 603.960938 C 718 606.140625 717.496094 608.285156 716.777344 610.398438 C 716.101562 612.515625 715.179688 614.445312 714.019531 616.1875 C 712.898438 617.925781 711.496094 619.328125 709.816406 620.386719 C 708.136719 621.445312 706.15625 621.972656 703.878906 621.972656 C 701.800781 621.972656 699.78125 621.289062 697.816406 619.921875 C 695.859375 618.550781 694.277344 616.714844 693.078125 614.414062 C 692.800781 613.914062 692.597656 613.449219 692.476562 613.011719 C 692.359375 612.578125 692.296875 612.113281 692.296875 611.613281 C 692.296875 610.867188 692.417969 610.179688 692.65625 609.558594 C 692.898438 608.9375 693.21875 608.40625 693.617188 607.972656 C 694.019531 607.601562 694.457031 607.414062 694.9375 607.414062 C 695.257812 607.414062 695.558594 607.472656 695.839844 607.601562 C 696.121094 607.785156 696.378906 608.097656 696.617188 608.535156 C 697.539062 610.214844 698.558594 611.550781 699.679688 612.546875 C 700.800781 613.539062 702.21875 614.039062 703.9375 614.039062 C 705.460938 614.039062 706.9375 613.511719 708.378906 612.453125 C 709.816406 611.394531 711 609.652344 711.917969 607.226562 C 712.839844 604.859375 713.296875 601.660156 713.296875 597.613281 C 713.296875 596.621094 713.21875 595.125 713.058594 593.132812 C 712.898438 591.078125 712.660156 588.964844 712.339844 586.785156 C 711.21875 590.207031 709.816406 592.886719 708.136719 594.8125 C 706.5 596.679688 704.679688 597.613281 702.679688 597.613281 C 700.71875 597.613281 698.878906 596.835938 697.15625 595.28125 C 695.476562 593.660156 694.117188 591.328125 693.078125 588.28125 C 692.039062 585.167969 691.519531 581.433594 691.519531 577.078125 Z M 697.21875 577.265625 C 697.21875 579.820312 697.417969 582.027344 697.816406 583.894531 C 698.21875 585.761719 698.859375 587.21875 699.738281 588.28125 C 700.621094 589.273438 701.761719 589.773438 703.15625 589.773438 C 704.359375 589.773438 705.4375 589.085938 706.398438 587.71875 C 707.398438 586.289062 708.316406 584.394531 709.15625 582.027344 C 709.996094 579.601562 710.761719 576.925781 711.4375 574 C 711.398438 572.878906 711.359375 571.574219 711.316406 570.078125 C 711.277344 568.527344 711.257812 567.21875 711.257812 566.160156 C 711.257812 565.101562 711.257812 564.011719 711.257812 562.894531 C 711.300781 561.773438 711.339844 560.652344 711.378906 559.535156 C 711.460938 558.414062 711.539062 557.324219 711.617188 556.265625 C 710.859375 555.765625 710.117188 555.394531 709.398438 555.148438 C 708.71875 554.898438 708 554.773438 707.238281 554.773438 C 705.679688 554.773438 704.28125 555.425781 703.039062 556.734375 C 701.800781 558.039062 700.738281 559.78125 699.859375 561.960938 C 699.019531 564.140625 698.359375 566.566406 697.878906 569.238281 C 697.441406 571.851562 697.21875 574.527344 697.21875 577.265625 Z M 750.859375 528.921875 C 750.859375 527.613281 751.144531 526.648438 751.699219 526.027344 C 752.261719 525.40625 752.902344 525.09375 753.621094 525.09375 C 754.300781 525.09375 754.921875 525.40625 755.480469 526.027344 C 756.082031 526.648438 756.363281 527.613281 756.320312 528.921875 C 756.003906 539.558594 755.660156 550.355469 755.300781 561.308594 C 754.984375 572.257812 754.660156 583.300781 754.339844 594.441406 C 754.300781 595.746094 753.980469 596.710938 753.382812 597.332031 C 752.824219 597.953125 752.203125 598.265625 751.519531 598.265625 C 750.84375 598.265625 750.199219 597.953125 749.601562 597.332031 C 749.042969 596.710938 748.78125 595.746094 748.820312 594.441406 C 749.140625 583.300781 749.480469 572.257812 749.839844 561.308594 C 750.199219 550.355469 750.542969 539.558594 750.859375 528.921875 Z M 768.183594 550.480469 C 768.144531 549.421875 768.382812 548.488281 768.902344 547.679688 C 769.425781 546.871094 770.101562 546.464844 770.941406 546.464844 C 771.585938 546.464844 772.105469 546.78125 772.503906 547.398438 C 772.945312 547.960938 773.265625 549.019531 773.464844 550.574219 C 773.703125 552.066406 773.84375 554.214844 773.882812 557.011719 C 775.003906 553.902344 776.363281 551.378906 777.964844 549.453125 C 779.605469 547.527344 781.425781 546.558594 783.421875 546.558594 C 785.582031 546.558594 787.523438 547.527344 789.242188 549.453125 C 790.964844 551.320312 792.324219 553.992188 793.324219 557.480469 C 794.324219 560.964844 794.824219 565.101562 794.824219 569.894531 C 794.824219 572.566406 794.761719 575.273438 794.644531 578.011719 C 794.523438 580.753906 794.402344 583.488281 794.28125 586.226562 C 794.203125 588.964844 794.144531 591.699219 794.101562 594.441406 C 794.101562 595.621094 793.824219 596.585938 793.261719 597.332031 C 792.703125 598.019531 792.003906 598.359375 791.164062 598.359375 C 790.363281 598.359375 789.722656 598.019531 789.242188 597.332031 C 788.761719 596.585938 788.523438 595.621094 788.523438 594.441406 C 788.523438 592.761719 788.566406 591.019531 788.644531 589.214844 C 788.722656 587.40625 788.804688 585.539062 788.882812 583.613281 C 788.964844 581.6875 789.046875 579.726562 789.121094 577.734375 C 789.203125 575.742188 789.242188 573.6875 789.242188 571.574219 C 789.242188 568.027344 788.984375 565.007812 788.464844 562.519531 C 787.984375 559.96875 787.261719 558.039062 786.304688 556.734375 C 785.386719 555.367188 784.222656 554.679688 782.824219 554.679688 C 781.742188 554.679688 780.703125 555.273438 779.703125 556.453125 C 778.742188 557.632812 777.863281 559.191406 777.0625 561.121094 C 776.304688 563.046875 775.644531 565.132812 775.082031 567.375 C 774.5625 569.613281 774.203125 571.761719 774.003906 573.8125 C 773.605469 577.859375 773.265625 581.246094 772.984375 583.988281 C 772.703125 586.726562 772.484375 588.964844 772.324219 590.707031 C 772.164062 592.449219 772.023438 593.914062 771.902344 595.09375 C 771.824219 596.027344 771.5625 596.742188 771.121094 597.238281 C 770.683594 597.738281 770.125 597.988281 769.441406 597.988281 C 768.722656 597.988281 768.121094 597.800781 767.644531 597.425781 C 767.203125 597.113281 766.882812 596.648438 766.683594 596.027344 C 766.523438 595.339844 766.484375 594.59375 766.5625 593.785156 C 766.964844 590.054688 767.304688 586.378906 767.582031 582.773438 C 767.863281 579.101562 768.0625 575.527344 768.183594 572.039062 C 768.34375 568.492188 768.421875 565.132812 768.421875 561.960938 C 768.421875 560.03125 768.40625 558.414062 768.363281 557.105469 C 768.363281 555.738281 768.34375 554.527344 768.304688 553.464844 C 768.304688 552.40625 768.265625 551.414062 768.183594 550.480469 Z M 828.253906 598.453125 C 827.8125 598.453125 827.351562 598.300781 826.871094 597.988281 C 826.429688 597.738281 826.070312 597.332031 825.792969 596.773438 C 825.511719 596.214844 825.390625 595.5 825.433594 594.625 C 825.75 590.460938 826.050781 586.445312 826.332031 582.585938 C 826.648438 578.667969 826.8125 574.652344 826.8125 570.546875 C 826.8125 567.558594 826.671875 564.792969 826.390625 562.238281 C 826.109375 559.6875 825.628906 557.632812 824.953125 556.078125 C 824.308594 554.460938 823.429688 553.652344 822.3125 553.652344 C 820.753906 553.652344 819.230469 554.679688 817.753906 556.734375 C 816.3125 558.726562 814.949219 562.148438 813.671875 567 C 813.230469 568.742188 812.8125 570.484375 812.410156 572.226562 C 812.050781 573.90625 811.710938 575.621094 811.390625 577.359375 C 811.070312 579.039062 810.769531 580.78125 810.492188 582.585938 C 810.410156 583.273438 810.3125 584.113281 810.191406 585.105469 C 810.109375 586.101562 810.011719 587.128906 809.890625 588.1875 C 809.773438 589.246094 809.652344 590.273438 809.53125 591.265625 C 809.449219 592.261719 809.351562 593.101562 809.230469 593.785156 C 808.992188 595.152344 808.609375 596.179688 808.09375 596.867188 C 807.570312 597.488281 806.96875 597.800781 806.292969 597.800781 C 805.410156 597.800781 804.769531 597.460938 804.371094 596.773438 C 803.96875 596.027344 803.75 595.09375 803.710938 593.972656 C 803.710938 593.660156 803.710938 593.351562 803.710938 593.039062 C 803.75 592.667969 803.789062 592.234375 803.832031 591.734375 C 803.871094 591.234375 803.929688 590.644531 804.011719 589.960938 C 804.449219 586.472656 804.832031 582.742188 805.152344 578.761719 C 805.511719 574.714844 805.691406 570.546875 805.691406 566.253906 C 805.691406 564.761719 805.648438 562.988281 805.570312 560.933594 C 805.53125 558.878906 805.46875 556.921875 805.390625 555.054688 C 805.3125 553.1875 805.230469 551.820312 805.152344 550.945312 C 805.152344 550.386719 805.191406 549.734375 805.273438 548.988281 C 805.390625 548.238281 805.632812 547.621094 805.992188 547.121094 C 806.390625 546.558594 806.96875 546.28125 807.730469 546.28125 C 808.453125 546.28125 809.011719 546.527344 809.410156 547.027344 C 809.8125 547.460938 810.109375 548.113281 810.3125 548.988281 C 810.433594 549.484375 810.53125 550.199219 810.613281 551.132812 C 810.730469 552.066406 810.808594 553.09375 810.851562 554.214844 C 810.929688 555.273438 810.972656 556.300781 810.972656 557.292969 C 810.972656 558.226562 810.972656 559.007812 810.972656 559.625 C 811.851562 556.953125 812.832031 554.554688 813.910156 552.441406 C 814.992188 550.324219 816.230469 548.644531 817.632812 547.398438 C 819.070312 546.152344 820.691406 545.535156 822.492188 545.535156 C 824.371094 545.535156 825.929688 546.246094 827.171875 547.679688 C 828.449219 549.046875 829.453125 550.886719 830.171875 553.1875 C 830.929688 555.488281 831.472656 558.039062 831.792969 560.839844 C 832.109375 563.640625 832.273438 566.472656 832.273438 569.332031 C 832.273438 571.386719 832.210938 573.566406 832.09375 575.867188 C 832.011719 578.105469 831.890625 580.347656 831.730469 582.585938 C 831.613281 584.828125 831.449219 586.972656 831.253906 589.027344 C 831.089844 591.078125 830.953125 592.945312 830.832031 594.625 C 830.75 595.933594 830.472656 596.898438 829.992188 597.519531 C 829.511719 598.140625 828.929688 598.453125 828.253906 598.453125 Z M 866.960938 569.425781 C 866.960938 573.21875 866.578125 576.832031 865.820312 580.253906 C 865.101562 583.613281 864.058594 586.601562 862.699219 589.214844 C 861.382812 591.765625 859.820312 593.785156 858.019531 595.28125 C 856.222656 596.710938 854.28125 597.425781 852.199219 597.425781 C 849.679688 597.425781 847.441406 596.460938 845.480469 594.535156 C 843.519531 592.605469 841.980469 589.960938 840.859375 586.601562 C 839.738281 583.179688 839.179688 579.289062 839.179688 574.933594 C 839.179688 571.011719 839.558594 567.3125 840.320312 563.828125 C 841.117188 560.339844 842.199219 557.292969 843.5625 554.679688 C 844.960938 552.007812 846.5625 549.921875 848.359375 548.425781 C 850.199219 546.871094 852.160156 546.09375 854.242188 546.09375 C 856.761719 546.09375 858.960938 547.152344 860.839844 549.265625 C 862.761719 551.320312 864.261719 554.121094 865.339844 557.667969 C 866.421875 561.152344 866.960938 565.074219 866.960938 569.425781 Z M 844.761719 574.558594 C 844.761719 577.605469 845.0625 580.253906 845.660156 582.492188 C 846.261719 584.734375 847.117188 586.472656 848.242188 587.71875 C 849.398438 588.964844 850.738281 589.585938 852.261719 589.585938 C 854.019531 589.585938 855.601562 588.6875 857 586.878906 C 858.398438 585.011719 859.5 582.554688 860.300781 579.507812 C 861.097656 576.394531 861.5 572.941406 861.5 569.148438 C 861.5 566.21875 861.160156 563.605469 860.480469 561.308594 C 859.800781 559.007812 858.878906 557.199219 857.722656 555.894531 C 856.597656 554.585938 855.300781 553.933594 853.820312 553.933594 C 852.21875 553.933594 850.71875 554.898438 849.320312 556.828125 C 847.960938 558.691406 846.859375 561.179688 846.019531 564.292969 C 845.179688 567.40625 844.761719 570.828125 844.761719 574.558594 Z M 872.6875 552.71875 C 872.6875 551.472656 872.96875 550.511719 873.527344 549.828125 C 874.089844 549.140625 874.6875 548.800781 875.328125 548.800781 C 875.648438 548.800781 875.988281 548.925781 876.347656 549.171875 C 876.707031 549.359375 877.007812 549.765625 877.246094 550.386719 C 878.367188 553.433594 879.386719 556.886719 880.308594 560.746094 C 881.230469 564.539062 882.070312 568.621094 882.828125 572.972656 C 883.628906 577.328125 884.347656 581.839844 884.988281 586.507812 C 886.226562 581.902344 887.386719 577.546875 888.46875 573.441406 C 889.585938 569.332031 890.710938 565.289062 891.828125 561.308594 C 892.945312 557.261719 894.109375 553.152344 895.308594 548.988281 C 895.507812 548.238281 895.789062 547.710938 896.148438 547.398438 C 896.546875 547.085938 897.007812 546.933594 897.527344 546.933594 C 897.96875 546.933594 898.390625 547.085938 898.789062 547.398438 C 899.230469 547.648438 899.589844 548.054688 899.867188 548.613281 C 900.148438 549.113281 900.289062 549.734375 900.289062 550.480469 C 900.289062 551.101562 900.167969 551.941406 899.929688 553 C 899.726562 553.992188 899.449219 555.113281 899.089844 556.359375 C 898.765625 557.539062 898.449219 558.691406 898.128906 559.8125 C 897.808594 560.933594 897.527344 561.867188 897.289062 562.613281 C 896.808594 564.234375 896.207031 566.285156 895.488281 568.773438 C 894.769531 571.261719 893.988281 573.90625 893.148438 576.707031 C 892.347656 579.507812 891.550781 582.273438 890.746094 585.011719 C 889.945312 587.6875 889.210938 590.113281 888.527344 592.292969 C 887.847656 594.40625 887.246094 595.964844 886.726562 596.960938 C 886.210938 597.894531 885.730469 598.484375 885.289062 598.734375 C 884.847656 599.046875 884.386719 599.199219 883.90625 599.199219 C 883.308594 599.199219 882.769531 598.921875 882.289062 598.359375 C 881.808594 597.859375 881.488281 597.085938 881.328125 596.027344 C 880.328125 588.992188 879.109375 582.085938 877.667969 575.308594 C 876.265625 568.460938 874.6875 561.554688 872.929688 554.585938 C 872.847656 554.273438 872.785156 553.964844 872.746094 553.652344 C 872.710938 553.28125 872.6875 552.96875 872.6875 552.71875 Z M 929.921875 598.921875 C 929.164062 598.921875 928.421875 598.640625 927.703125 598.078125 C 926.980469 597.582031 926.34375 596.585938 925.78125 595.09375 C 925.222656 593.539062 924.78125 591.265625 924.460938 588.28125 C 923.582031 590.832031 922.382812 593.074219 920.863281 595 C 919.382812 596.925781 917.542969 597.894531 915.34375 597.894531 C 912.902344 597.894531 910.78125 596.898438 908.980469 594.90625 C 907.183594 592.851562 905.785156 590.113281 904.78125 586.691406 C 903.78125 583.207031 903.28125 579.351562 903.28125 575.121094 C 903.28125 571.574219 903.664062 568.085938 904.421875 564.667969 C 905.183594 561.179688 906.242188 558.074219 907.601562 555.332031 C 909.003906 552.535156 910.621094 550.292969 912.460938 548.613281 C 914.34375 546.933594 916.363281 546.09375 918.523438 546.09375 C 919.683594 546.09375 920.902344 546.40625 922.183594 547.027344 C 923.464844 547.648438 924.742188 548.582031 926.023438 549.828125 C 926.140625 548.582031 926.425781 547.679688 926.863281 547.121094 C 927.304688 546.558594 927.882812 546.28125 928.601562 546.28125 C 929.28125 546.28125 929.800781 546.527344 930.160156 547.027344 C 930.5625 547.460938 930.84375 548.019531 931.003906 548.707031 C 931.164062 549.394531 931.242188 550.140625 931.242188 550.945312 C 931.242188 551.507812 931.203125 552.097656 931.121094 552.71875 C 931.082031 553.339844 931.023438 553.964844 930.941406 554.585938 C 930.863281 555.207031 930.78125 555.859375 930.703125 556.546875 C 930.542969 558.414062 930.34375 560.746094 930.101562 563.546875 C 929.902344 566.347656 929.722656 569.179688 929.5625 572.039062 C 929.441406 574.839844 929.382812 577.234375 929.382812 579.226562 C 929.382812 581.28125 929.402344 583.085938 929.441406 584.640625 C 929.523438 586.195312 929.621094 587.5 929.742188 588.558594 C 929.902344 589.621094 930.101562 590.488281 930.34375 591.171875 C 931.0625 590.550781 931.722656 589.804688 932.320312 588.933594 C 932.964844 588 933.421875 587.285156 933.703125 586.785156 C 933.941406 586.289062 934.203125 585.980469 934.480469 585.851562 C 934.804688 585.667969 935.101562 585.574219 935.382812 585.574219 C 936.0625 585.574219 936.601562 585.914062 937.003906 586.601562 C 937.441406 587.285156 937.660156 588.0625 937.660156 588.933594 C 937.660156 589.367188 937.601562 589.867188 937.480469 590.425781 C 937.402344 590.925781 937.285156 591.359375 937.121094 591.734375 C 936.160156 594.035156 935.042969 595.808594 933.761719 597.054688 C 932.484375 598.300781 931.203125 598.921875 929.921875 598.921875 Z M 915.820312 590.148438 C 917.183594 590.148438 918.363281 589.273438 919.363281 587.535156 C 920.402344 585.792969 921.304688 583.460938 922.0625 580.535156 C 922.824219 577.546875 923.464844 574.1875 923.980469 570.453125 L 925.183594 558.039062 C 924.101562 556.671875 923.023438 555.644531 921.941406 554.960938 C 920.863281 554.214844 919.742188 553.839844 918.582031 553.839844 C 917.621094 553.839844 916.585938 554.273438 915.460938 555.148438 C 914.34375 556.019531 913.285156 557.355469 912.28125 559.160156 C 911.28125 560.902344 910.464844 563.140625 909.820312 565.878906 C 909.183594 568.621094 908.863281 571.820312 908.863281 575.492188 C 908.863281 578.167969 909.101562 580.625 909.582031 582.867188 C 910.105469 585.046875 910.863281 586.820312 911.863281 588.1875 C 912.902344 589.492188 914.222656 590.148438 915.820312 590.148438 Z M 944.992188 538.066406 C 945.070312 537.007812 945.355469 536.261719 945.835938 535.828125 C 946.351562 535.328125 946.894531 535.078125 947.453125 535.078125 C 947.972656 535.078125 948.472656 535.265625 948.953125 535.640625 C 949.472656 535.953125 949.871094 536.480469 950.152344 537.226562 C 950.433594 537.972656 950.472656 538.9375 950.273438 540.121094 C 950.113281 541.550781 949.953125 543.011719 949.792969 544.507812 C 949.632812 545.9375 949.472656 547.433594 949.3125 548.988281 C 949.234375 550.046875 949.132812 551.566406 949.015625 553.558594 C 948.894531 555.488281 948.773438 557.574219 948.652344 559.8125 C 948.574219 562.054688 948.492188 564.167969 948.414062 566.160156 C 948.332031 568.085938 948.292969 569.613281 948.292969 570.734375 C 948.292969 573.660156 948.355469 576.460938 948.472656 579.132812 C 948.632812 581.808594 948.851562 583.988281 949.132812 585.667969 C 949.332031 586.972656 949.59375 588.0625 949.914062 588.933594 C 950.230469 589.804688 950.574219 590.238281 950.933594 590.238281 C 951.214844 590.238281 951.535156 590.113281 951.894531 589.867188 C 952.292969 589.621094 952.773438 589.085938 953.335938 588.28125 C 953.652344 587.78125 954.03125 587.40625 954.472656 587.160156 C 954.910156 586.847656 955.273438 586.691406 955.554688 586.691406 C 956.035156 586.691406 956.453125 586.878906 956.8125 587.253906 C 957.214844 587.625 957.535156 588.125 957.773438 588.746094 C 958.015625 589.308594 958.132812 589.898438 958.132812 590.519531 C 958.132812 591.207031 958.015625 591.859375 957.773438 592.480469 C 957.574219 593.039062 957.3125 593.601562 956.992188 594.160156 C 956.273438 595.28125 955.3125 596.246094 954.113281 597.054688 C 952.953125 597.800781 951.792969 598.171875 950.632812 598.171875 C 949.351562 598.171875 948.214844 597.675781 947.214844 596.679688 C 946.253906 595.6875 945.492188 594.3125 944.933594 592.574219 C 944.410156 591.140625 943.992188 589.339844 943.675781 587.160156 C 943.390625 584.921875 943.171875 582.648438 943.015625 580.347656 C 942.894531 577.980469 942.8125 575.867188 942.773438 574 C 942.730469 572.074219 942.714844 570.734375 942.714844 569.988281 C 942.714844 564.574219 942.953125 559.191406 943.433594 553.839844 C 943.914062 548.425781 944.433594 543.167969 944.992188 538.066406 Z M 942.472656 556.921875 C 941.472656 557.105469 940.753906 556.792969 940.3125 555.988281 C 939.910156 555.113281 939.714844 554.179688 939.714844 553.1875 C 939.714844 552.128906 939.910156 551.257812 940.3125 550.574219 C 940.714844 549.828125 941.335938 549.359375 942.175781 549.171875 C 943.613281 548.859375 945.070312 548.613281 946.554688 548.425781 C 948.070312 548.179688 949.570312 547.992188 951.054688 547.867188 C 952.570312 547.679688 954.03125 547.527344 955.433594 547.398438 C 956.152344 547.339844 956.734375 547.710938 957.175781 548.519531 C 957.652344 549.265625 957.910156 550.140625 957.953125 551.132812 C 957.992188 552.3125 957.753906 553.28125 957.234375 554.027344 C 956.710938 554.773438 956.113281 555.179688 955.433594 555.238281 C 954.03125 555.367188 952.59375 555.519531 951.113281 555.707031 C 949.632812 555.832031 948.152344 556.019531 946.675781 556.265625 C 945.234375 556.453125 943.832031 556.671875 942.472656 556.921875 Z M 965.632812 550.011719 C 965.632812 548.765625 965.914062 547.835938 966.472656 547.214844 C 967.035156 546.59375 967.636719 546.28125 968.273438 546.28125 C 968.753906 546.28125 969.195312 546.433594 969.59375 546.746094 C 970.035156 546.992188 970.394531 547.398438 970.675781 547.960938 C 970.957031 548.519531 971.074219 549.234375 971.035156 550.105469 C 970.875 553.09375 970.734375 556.140625 970.613281 559.253906 C 970.492188 562.367188 970.394531 565.726562 970.3125 569.332031 C 970.273438 572.878906 970.234375 576.800781 970.195312 581.09375 C 970.195312 585.386719 970.195312 590.207031 970.195312 595.558594 C 970.195312 596.554688 969.976562 597.425781 969.535156 598.171875 C 969.136719 598.980469 968.476562 599.386719 967.554688 599.386719 C 966.59375 599.386719 965.976562 599.074219 965.695312 598.453125 C 965.414062 597.832031 965.195312 596.773438 965.035156 595.28125 C 964.875 593.972656 964.753906 592.386719 964.675781 590.519531 C 964.636719 588.59375 964.613281 586.539062 964.613281 584.359375 C 964.613281 581.0625 964.65625 577.640625 964.734375 574.09375 C 964.855469 570.484375 964.972656 567.0625 965.09375 563.828125 C 965.214844 560.527344 965.316406 557.667969 965.394531 555.238281 C 965.515625 552.753906 965.59375 551.007812 965.632812 550.011719 Z M 965.152344 530.039062 C 965.152344 528.046875 965.554688 526.554688 966.355469 525.558594 C 967.195312 524.5 968.015625 523.972656 968.8125 523.972656 C 969.976562 523.972656 970.933594 524.625 971.695312 525.933594 C 972.457031 527.238281 972.835938 528.699219 972.835938 530.320312 C 972.835938 531.128906 972.652344 532 972.292969 532.933594 C 971.976562 533.867188 971.496094 534.675781 970.855469 535.359375 C 970.253906 536.046875 969.535156 536.386719 968.695312 536.386719 C 967.574219 536.386719 966.695312 535.734375 966.054688 534.425781 C 965.453125 533.058594 965.152344 531.59375 965.152344 530.039062 Z M 978.019531 552.253906 C 977.976562 551.941406 977.9375 551.691406 977.898438 551.507812 C 977.855469 551.257812 977.839844 551.007812 977.839844 550.761719 C 977.839844 549.640625 978.117188 548.738281 978.679688 548.054688 C 979.277344 547.308594 979.9375 546.933594 980.65625 546.933594 C 981.257812 546.933594 981.777344 547.179688 982.21875 547.679688 C 982.699219 548.113281 983.015625 548.832031 983.179688 549.828125 C 983.777344 552.6875 984.394531 555.550781 985.039062 558.414062 C 985.714844 561.214844 986.398438 564.074219 987.078125 567 C 987.757812 569.925781 988.414062 572.878906 989.058594 575.867188 C 989.734375 578.851562 990.378906 581.902344 990.976562 585.011719 C 991.855469 581.59375 992.695312 578.324219 993.496094 575.214844 C 994.296875 572.039062 995.074219 569.019531 995.839844 566.160156 C 996.636719 563.234375 997.4375 560.375 998.238281 557.574219 C 999.078125 554.773438 999.957031 552.035156 1000.878906 549.359375 C 1001.117188 548.613281 1001.417969 548.085938 1001.777344 547.773438 C 1002.175781 547.398438 1002.574219 547.214844 1002.976562 547.214844 C 1003.457031 547.214844 1003.917969 547.398438 1004.359375 547.773438 C 1004.839844 548.148438 1005.214844 548.644531 1005.496094 549.265625 C 1005.816406 549.828125 1005.976562 550.480469 1005.976562 551.226562 C 1005.976562 551.539062 1005.9375 551.914062 1005.859375 552.347656 C 1005.777344 552.78125 1005.574219 553.40625 1005.257812 554.214844 C 1004.777344 555.582031 1004.117188 557.699219 1003.277344 560.558594 C 1002.4375 563.359375 1001.496094 566.535156 1000.457031 570.078125 C 999.457031 573.625 998.457031 577.171875 997.457031 580.71875 C 996.496094 584.265625 995.617188 587.472656 994.816406 590.332031 C 994.054688 593.132812 993.496094 595.21875 993.136719 596.585938 C 992.976562 597.273438 992.65625 597.765625 992.179688 598.078125 C 991.738281 598.453125 991.234375 598.640625 990.679688 598.640625 C 990.035156 598.640625 989.4375 598.359375 988.878906 597.800781 C 988.355469 597.300781 987.996094 596.554688 987.796875 595.558594 C 987.15625 591.886719 986.4375 588.246094 985.636719 584.640625 C 984.835938 581.03125 983.996094 577.421875 983.117188 573.8125 C 982.234375 570.207031 981.355469 566.625 980.476562 563.078125 C 979.636719 559.472656 978.816406 555.859375 978.019531 552.253906 Z M 1008.867188 574.558594 C 1008.867188 571.511719 1009.144531 568.367188 1009.707031 565.132812 C 1010.269531 561.898438 1011.125 558.914062 1012.285156 556.171875 C 1013.488281 553.375 1015.046875 551.132812 1016.96875 549.453125 C 1018.925781 547.710938 1021.285156 546.839844 1024.046875 546.839844 C 1025.6875 546.839844 1027.246094 547.273438 1028.726562 548.148438 C 1030.207031 548.953125 1031.40625 550.261719 1032.328125 552.066406 C 1033.246094 553.808594 1033.707031 556.046875 1033.707031 558.785156 C 1033.707031 561.960938 1033.085938 564.761719 1031.847656 567.1875 C 1030.609375 569.613281 1029.007812 571.699219 1027.046875 573.441406 C 1025.089844 575.121094 1023.007812 576.488281 1020.808594 577.546875 C 1018.609375 578.539062 1016.566406 579.226562 1014.6875 579.601562 C 1014.964844 583.207031 1015.746094 585.945312 1017.027344 587.8125 C 1018.347656 589.679688 1020.066406 590.613281 1022.1875 590.613281 C 1024.308594 590.613281 1026.226562 589.925781 1027.945312 588.558594 C 1029.707031 587.128906 1031.328125 585.167969 1032.808594 582.679688 C 1033.046875 582.308594 1033.308594 582.027344 1033.585938 581.839844 C 1033.90625 581.652344 1034.207031 581.558594 1034.488281 581.558594 C 1034.96875 581.558594 1035.386719 581.714844 1035.746094 582.027344 C 1036.144531 582.273438 1036.46875 582.679688 1036.707031 583.238281 C 1036.945312 583.800781 1037.066406 584.453125 1037.066406 585.199219 C 1037.066406 585.632812 1036.984375 586.132812 1036.828125 586.691406 C 1036.667969 587.253906 1036.488281 587.753906 1036.285156 588.1875 C 1035.246094 590.425781 1033.90625 592.324219 1032.265625 593.878906 C 1030.625 595.375 1028.886719 596.492188 1027.046875 597.238281 C 1025.246094 597.988281 1023.527344 598.359375 1021.886719 598.359375 C 1018.804688 598.359375 1016.308594 597.238281 1014.386719 595 C 1012.46875 592.699219 1011.066406 589.742188 1010.1875 586.132812 C 1009.308594 582.460938 1008.867188 578.605469 1008.867188 574.558594 Z M 1014.445312 572.226562 C 1017.085938 571.539062 1019.449219 570.484375 1021.527344 569.054688 C 1023.605469 567.621094 1025.246094 566.007812 1026.445312 564.199219 C 1027.6875 562.394531 1028.308594 560.652344 1028.308594 558.972656 C 1028.308594 557.851562 1027.96875 556.828125 1027.285156 555.894531 C 1026.605469 554.960938 1025.488281 554.492188 1023.925781 554.492188 C 1022.488281 554.492188 1021.085938 555.019531 1019.726562 556.078125 C 1018.367188 557.140625 1017.207031 558.941406 1016.246094 561.492188 C 1015.324219 564.046875 1014.726562 567.621094 1014.445312 572.226562 Z M 1072.429688 571.386719 C 1071.667969 571.449219 1071.046875 571.140625 1070.566406 570.453125 C 1070.089844 569.707031 1069.847656 568.679688 1069.847656 567.375 C 1069.847656 566.191406 1070.109375 565.195312 1070.628906 564.386719 C 1071.148438 563.578125 1071.746094 563.171875 1072.429688 563.171875 C 1073.109375 563.113281 1074.128906 563.046875 1075.488281 562.988281 C 1076.847656 562.925781 1078.285156 562.894531 1079.808594 562.894531 C 1081.328125 562.832031 1082.710938 562.800781 1083.949219 562.800781 C 1085.230469 562.800781 1086.109375 562.832031 1086.589844 562.894531 C 1087.390625 562.953125 1087.988281 563.328125 1088.386719 564.011719 C 1088.828125 564.632812 1089.046875 565.472656 1089.046875 566.535156 C 1089.046875 567.652344 1088.828125 568.710938 1088.386719 569.707031 C 1087.988281 570.699219 1087.390625 571.167969 1086.589844 571.105469 C 1086.109375 571.046875 1085.230469 571.011719 1083.949219 571.011719 C 1082.710938 571.011719 1081.328125 571.046875 1079.808594 571.105469 C 1078.285156 571.105469 1076.847656 571.140625 1075.488281 571.199219 C 1074.128906 571.199219 1073.109375 571.261719 1072.429688 571.386719 Z M 1072.429688 571.386719 "/>
</g>
</svg>
